<?xml version="1.0" encoding="UTF-8" standalone="no"?>
<!DOCTYPE svg PUBLIC "-//W3C//DTD SVG 1.1//EN"
 "http://www.w3.org/Graphics/SVG/1.1/DTD/svg11.dtd">
<!-- Generated by graphviz version 2.38.0 (20140413.2041)
 -->
<!-- Title: intro Pages: 1 -->
<svg width="348pt" height="260pt"
 viewBox="0.00 0.00 348.19 260.00" xmlns="http://www.w3.org/2000/svg" xmlns:xlink="http://www.w3.org/1999/xlink">
<g id="graph0" class="graph" transform="scale(1 1) rotate(0) translate(4 256)">
<title>intro</title>
<polygon fill="white" stroke="none" points="-4,4 -4,-256 344.186,-256 344.186,4 -4,4"/>
<!-- top -->
<g id="node1" class="node"><title>top</title>
<ellipse fill="#005a9c" stroke="#000000" stroke-width="2" cx="185.841" cy="-234" rx="42.7926" ry="18"/>
<text text-anchor="middle" x="185.841" y="-230.3" font-family="DejaVu Sans Mono bold" font-size="14.00" fill="#ffffff">Entity</text>
</g>
<!-- Node -->
<g id="node2" class="node"><title>Node</title>
<ellipse fill="none" stroke="#005a9c" stroke-width="2" cx="75.8414" cy="-162" rx="32.4942" ry="18"/>
<text text-anchor="middle" x="75.8414" y="-158.3" font-family="DejaVu Sans Mono bold" font-size="14.00">Node</text>
</g>
<!-- Node&#45;&gt;top -->
<g id="edge1" class="edge"><title>Node&#45;&gt;top</title>
<path fill="none" stroke="black" d="M96.2738,-176.002C112.687,-186.447 136.006,-201.287 154.736,-213.206"/>
<polygon fill="black" stroke="black" points="152.928,-216.204 163.244,-218.62 156.687,-210.298 152.928,-216.204"/>
</g>
<!-- ModelId -->
<g id="node3" class="node"><title>ModelId</title>
<ellipse fill="none" stroke="#005a9c" stroke-width="2" cx="96.8414" cy="-18" rx="48.1917" ry="18"/>
<text text-anchor="middle" x="96.8414" y="-14.3" font-family="DejaVu Sans Mono bold" font-size="14.00">ModelId</text>
</g>
<!-- EntityIdentifier -->
<g id="node4" class="node"><title>EntityIdentifier</title>
<ellipse fill="none" stroke="#005a9c" stroke-width="2" cx="96.8414" cy="-90" rx="96.6831" ry="18"/>
<text text-anchor="middle" x="96.8414" y="-86.3" font-family="DejaVu Sans Mono bold" font-size="14.00">EntityIdentifier</text>
</g>
<!-- ModelId&#45;&gt;EntityIdentifier -->
<g id="edge2" class="edge"><title>ModelId&#45;&gt;EntityIdentifier</title>
<path fill="none" stroke="black" d="M96.8414,-36.3034C96.8414,-44.0173 96.8414,-53.2875 96.8414,-61.8876"/>
<polygon fill="black" stroke="black" points="93.3415,-61.8956 96.8414,-71.8957 100.342,-61.8957 93.3415,-61.8956"/>
</g>
<!-- Attribute -->
<g id="node5" class="node"><title>Attribute</title>
<ellipse fill="none" stroke="#005a9c" stroke-width="2" cx="185.841" cy="-162" rx="59.2899" ry="18"/>
<text text-anchor="middle" x="185.841" y="-158.3" font-family="DejaVu Sans Mono bold" font-size="14.00">Attribute</text>
</g>
<!-- EntityIdentifier&#45;&gt;Attribute -->
<g id="edge3" class="edge"><title>EntityIdentifier&#45;&gt;Attribute</title>
<path fill="none" stroke="black" d="M117.933,-107.589C129.74,-116.875 144.62,-128.579 157.44,-138.662"/>
<polygon fill="black" stroke="black" points="155.49,-141.581 165.514,-145.012 159.817,-136.079 155.49,-141.581"/>
</g>
<!-- Attribute&#45;&gt;top -->
<g id="edge4" class="edge"><title>Attribute&#45;&gt;top</title>
<path fill="none" stroke="black" d="M185.841,-180.303C185.841,-188.017 185.841,-197.288 185.841,-205.888"/>
<polygon fill="black" stroke="black" points="182.342,-205.896 185.841,-215.896 189.342,-205.896 182.342,-205.896"/>
</g>
<!-- ModelName -->
<g id="node6" class="node"><title>ModelName</title>
<ellipse fill="none" stroke="#005a9c" stroke-width="2" cx="275.841" cy="-18" rx="59.2899" ry="18"/>
<text text-anchor="middle" x="275.841" y="-14.3" font-family="DejaVu Sans Mono bold" font-size="14.00">ModelName</text>
</g>
<!-- EntityName -->
<g id="node7" class="node"><title>EntityName</title>
<ellipse fill="none" stroke="#005a9c" stroke-width="2" cx="275.841" cy="-90" rx="64.189" ry="18"/>
<text text-anchor="middle" x="275.841" y="-86.3" font-family="DejaVu Sans Mono bold" font-size="14.00">EntityName</text>
</g>
<!-- ModelName&#45;&gt;EntityName -->
<g id="edge5" class="edge"><title>ModelName&#45;&gt;EntityName</title>
<path fill="none" stroke="black" d="M275.841,-36.3034C275.841,-44.0173 275.841,-53.2875 275.841,-61.8876"/>
<polygon fill="black" stroke="black" points="272.342,-61.8956 275.841,-71.8957 279.342,-61.8957 272.342,-61.8956"/>
</g>
<!-- EntityName&#45;&gt;Attribute -->
<g id="edge6" class="edge"><title>EntityName&#45;&gt;Attribute</title>
<path fill="none" stroke="black" d="M254.967,-107.235C242.955,-116.578 227.686,-128.454 214.556,-138.666"/>
<polygon fill="black" stroke="black" points="212.037,-136.192 206.292,-145.094 216.334,-141.717 212.037,-136.192"/>
</g>
<!-- Text -->
<g id="node8" class="node"><title>Text</title>
<ellipse fill="none" stroke="#005a9c" stroke-width="2" cx="295.841" cy="-162" rx="32.4942" ry="18"/>
<text text-anchor="middle" x="295.841" y="-158.3" font-family="DejaVu Sans Mono bold" font-size="14.00">Text</text>
</g>
<!-- Text&#45;&gt;top -->
<g id="edge7" class="edge"><title>Text&#45;&gt;top</title>
<path fill="none" stroke="black" d="M275.409,-176.002C258.996,-186.447 235.677,-201.287 216.947,-213.206"/>
<polygon fill="black" stroke="black" points="214.996,-210.298 208.439,-218.62 218.754,-216.204 214.996,-210.298"/>
</g>
</g>
</svg>
