<?xml version="1.0" encoding="UTF-8" standalone="no"?>
<!DOCTYPE svg PUBLIC "-//W3C//DTD SVG 1.1//EN"
 "http://www.w3.org/Graphics/SVG/1.1/DTD/svg11.dtd">
<!-- Generated by graphviz version 2.38.0 (20140413.2041)
 -->
<!-- Title: intro Pages: 1 -->
<svg width="462pt" height="116pt"
 viewBox="0.00 0.00 462.14 116.00" xmlns="http://www.w3.org/2000/svg" xmlns:xlink="http://www.w3.org/1999/xlink">
<g id="graph0" class="graph" transform="scale(1 1) rotate(0) translate(4 112)">
<title>intro</title>
<polygon fill="white" stroke="none" points="-4,4 -4,-112 458.137,-112 458.137,4 -4,4"/>
<!-- top -->
<g id="node1" class="node"><title>top</title>
<ellipse fill="#005a9c" stroke="#000000" stroke-width="2" cx="205.344" cy="-90" rx="59.2899" ry="18"/>
<text text-anchor="middle" x="205.344" y="-86.3" font-family="DejaVu Sans Mono bold" font-size="14.00" fill="#ffffff">Intention</text>
</g>
<!-- Correction -->
<g id="node2" class="node"><title>Correction</title>
<ellipse fill="none" stroke="#005a9c" stroke-width="2" cx="64.3443" cy="-18" rx="64.189" ry="18"/>
<text text-anchor="middle" x="64.3443" y="-14.3" font-family="DejaVu Sans Mono bold" font-size="14.00">Correction</text>
</g>
<!-- Correction&#45;&gt;top -->
<g id="edge1" class="edge"><title>Correction&#45;&gt;top</title>
<path fill="none" stroke="black" d="M94.5923,-34.0168C115.644,-44.4679 143.896,-58.494 166.597,-69.7637"/>
<polygon fill="black" stroke="black" points="165.117,-72.9365 175.63,-74.2483 168.23,-66.6666 165.117,-72.9365"/>
</g>
<!-- Extension -->
<g id="node3" class="node"><title>Extension</title>
<ellipse fill="none" stroke="#005a9c" stroke-width="2" cx="205.344" cy="-18" rx="59.2899" ry="18"/>
<text text-anchor="middle" x="205.344" y="-14.3" font-family="DejaVu Sans Mono bold" font-size="14.00">Extension</text>
</g>
<!-- Extension&#45;&gt;top -->
<g id="edge2" class="edge"><title>Extension&#45;&gt;top</title>
<path fill="none" stroke="black" d="M205.344,-36.3034C205.344,-44.0173 205.344,-53.2875 205.344,-61.8876"/>
<polygon fill="black" stroke="black" points="201.844,-61.8956 205.344,-71.8957 208.844,-61.8957 201.844,-61.8956"/>
</g>
<!-- Simplification -->
<g id="node4" class="node"><title>Simplification</title>
<ellipse fill="none" stroke="#005a9c" stroke-width="2" cx="368.344" cy="-18" rx="85.5853" ry="18"/>
<text text-anchor="middle" x="368.344" y="-14.3" font-family="DejaVu Sans Mono bold" font-size="14.00">Simplification</text>
</g>
<!-- Simplification&#45;&gt;top -->
<g id="edge3" class="edge"><title>Simplification&#45;&gt;top</title>
<path fill="none" stroke="black" d="M332.573,-34.3618C307.45,-45.1507 273.756,-59.6206 247.354,-70.959"/>
<polygon fill="black" stroke="black" points="245.794,-67.82 237.986,-74.982 248.556,-74.252 245.794,-67.82"/>
</g>
</g>
</svg>
