<?xml version="1.0" encoding="UTF-8" standalone="no"?>
<!DOCTYPE svg PUBLIC "-//W3C//DTD SVG 1.1//EN"
 "http://www.w3.org/Graphics/SVG/1.1/DTD/svg11.dtd">
<!-- Generated by graphviz version 2.38.0 (20140413.2041)
 -->
<!-- Title: intro Pages: 1 -->
<svg width="334pt" height="152pt"
 viewBox="0.00 0.00 333.87 152.00" xmlns="http://www.w3.org/2000/svg" xmlns:xlink="http://www.w3.org/1999/xlink">
<g id="graph0" class="graph" transform="scale(1 1) rotate(0) translate(4 148)">
<title>intro</title>
<polygon fill="white" stroke="none" points="-4,4 -4,-148 329.874,-148 329.874,4 -4,4"/>
<!-- top -->
<g id="node1" class="node"><title>top</title>
<ellipse fill="#005a9c" stroke="#000000" stroke-width="2" cx="266.73" cy="-72" rx="59.2899" ry="18"/>
<text text-anchor="middle" x="266.73" y="-68.3" font-family="DejaVu Sans Mono bold" font-size="14.00" fill="#ffffff">Intention</text>
</g>
<!-- Correction -->
<g id="node2" class="node"><title>Correction</title>
<ellipse fill="none" stroke="#005a9c" stroke-width="2" cx="85.7924" cy="-126" rx="64.189" ry="18"/>
<text text-anchor="middle" x="85.7924" y="-122.3" font-family="DejaVu Sans Mono bold" font-size="14.00">Correction</text>
</g>
<!-- Correction&#45;&gt;top -->
<g id="edge1" class="edge"><title>Correction&#45;&gt;top</title>
<path fill="none" stroke="black" d="M130.108,-112.928C155.421,-105.289 187.522,-95.6016 214.138,-87.5693"/>
<polygon fill="black" stroke="black" points="215.483,-90.8196 224.045,-84.5797 213.46,-84.1181 215.483,-90.8196"/>
</g>
<!-- Extension -->
<g id="node3" class="node"><title>Extension</title>
<ellipse fill="none" stroke="#005a9c" stroke-width="2" cx="85.7924" cy="-72" rx="59.2899" ry="18"/>
<text text-anchor="middle" x="85.7924" y="-68.3" font-family="DejaVu Sans Mono bold" font-size="14.00">Extension</text>
</g>
<!-- Extension&#45;&gt;top -->
<g id="edge2" class="edge"><title>Extension&#45;&gt;top</title>
<path fill="none" stroke="black" d="M145.383,-72C161.842,-72 179.891,-72 196.889,-72"/>
<polygon fill="black" stroke="black" points="197.313,-75.5001 207.313,-72 197.313,-68.5001 197.313,-75.5001"/>
</g>
<!-- Simplification -->
<g id="node4" class="node"><title>Simplification</title>
<ellipse fill="none" stroke="#005a9c" stroke-width="2" cx="85.7924" cy="-18" rx="85.5853" ry="18"/>
<text text-anchor="middle" x="85.7924" y="-14.3" font-family="DejaVu Sans Mono bold" font-size="14.00">Simplification</text>
</g>
<!-- Simplification&#45;&gt;top -->
<g id="edge3" class="edge"><title>Simplification&#45;&gt;top</title>
<path fill="none" stroke="black" d="M135.688,-32.7557C160.17,-40.1439 189.794,-49.084 214.58,-56.564"/>
<polygon fill="black" stroke="black" points="213.587,-59.9201 224.172,-59.4586 215.609,-53.2186 213.587,-59.9201"/>
</g>
</g>
</svg>
