<?xml version="1.0" encoding="UTF-8" standalone="no"?>
<!DOCTYPE svg PUBLIC "-//W3C//DTD SVG 1.1//EN"
 "http://www.w3.org/Graphics/SVG/1.1/DTD/svg11.dtd">
<!-- Generated by graphviz version 2.38.0 (20140413.2041)
 -->
<!-- Title: intro Pages: 1 -->
<svg width="408pt" height="343pt"
 viewBox="0.00 0.00 407.87 343.16" xmlns="http://www.w3.org/2000/svg" xmlns:xlink="http://www.w3.org/1999/xlink">
<g id="graph0" class="graph" transform="scale(1 1) rotate(0) translate(220.419 183.981)">
<title>intro</title>
<polygon fill="white" stroke="none" points="-220.419,159.18 -220.419,-183.981 187.452,-183.981 187.452,159.18 -220.419,159.18"/>
<!-- change -->
<g id="node1" class="node"><title>change</title>
<ellipse fill="#005a9c" stroke="#000000" stroke-width="2" cx="-0.576574" cy="0.317156" rx="42.7926" ry="18"/>
<text text-anchor="middle" x="-0.576574" y="4.01716" font-family="DejaVu Sans Mono bold" font-size="14.00" fill="#ffffff">Change</text>
</g>
<!-- Target -->
<g id="node2" class="node"><title>Target</title>
<ellipse fill="none" stroke="#005a9c" stroke-width="2" cx="103.186" cy="125.411" rx="42.7926" ry="18"/>
<text text-anchor="middle" x="103.186" y="129.111" font-family="DejaVu Sans Mono bold" font-size="14.00">Target</text>
</g>
<!-- change&#45;&gt;Target -->
<g id="edge1" class="edge"><title>change&#45;&gt;Target</title>
<path fill="none" stroke="black" d="M13.6335,17.4487C31.386,38.8508 61.9058,75.645 82.3138,100.249"/>
<polygon fill="black" stroke="black" points="85.1236,98.1538 88.8141,108.085 79.7359,102.623 85.1236,98.1538"/>
<text text-anchor="middle" x="14.4737" y="55.0486" font-family="DejaVu Sans Mono bold" font-size="14.00" fill="#005a9c">affected</text>
</g>
<!-- Reason -->
<g id="node3" class="node"><title>Reason</title>
<ellipse fill="none" stroke="#005a9c" stroke-width="2" cx="-88.1001" cy="137.18" rx="42.7926" ry="18"/>
<text text-anchor="middle" x="-88.1001" y="140.88" font-family="DejaVu Sans Mono bold" font-size="14.00">Reason</text>
</g>
<!-- change&#45;&gt;Reason -->
<g id="edge2" class="edge"><title>change&#45;&gt;Reason</title>
<path fill="none" stroke="black" d="M-11.8396,17.9294C-26.9384,41.5399 -53.8617,83.6408 -71.3442,110.979"/>
<polygon fill="black" stroke="black" points="-68.5441,113.097 -76.8803,119.636 -74.4414,109.325 -68.5441,113.097"/>
<text text-anchor="middle" x="-79.0919" y="60.654" font-family="DejaVu Sans Mono bold" font-size="14.00" fill="#005a9c">hadReason</text>
</g>
<!-- Intention -->
<g id="node4" class="node"><title>Intention</title>
<ellipse fill="none" stroke="#005a9c" stroke-width="2" cx="-157.275" cy="-42.3795" rx="59.2899" ry="18"/>
<text text-anchor="middle" x="-157.275" y="-38.6795" font-family="DejaVu Sans Mono bold" font-size="14.00">Intention</text>
</g>
<!-- change&#45;&gt;Intention -->
<g id="edge3" class="edge"><title>change&#45;&gt;Intention</title>
<path fill="none" stroke="black" d="M-36.9201,-9.58563C-56.5992,-14.9477 -81.298,-21.6776 -103.192,-27.6432"/>
<polygon fill="black" stroke="black" points="-104.298,-24.3168 -113.026,-30.3227 -102.457,-31.0706 -104.298,-24.3168"/>
<text text-anchor="middle" x="-103.556" y="-7.4144" font-family="DejaVu Sans Mono bold" font-size="14.00" fill="#005a9c">intended</text>
</g>
<!-- Type -->
<g id="node5" class="node"><title>Type</title>
<ellipse fill="none" stroke="#005a9c" stroke-width="2" cx="150.955" cy="-58.5479" rx="32.4942" ry="18"/>
<text text-anchor="middle" x="150.955" y="-54.8479" font-family="DejaVu Sans Mono bold" font-size="14.00">Type</text>
</g>
<!-- change&#45;&gt;Type -->
<g id="edge4" class="edge"><title>change&#45;&gt;Type</title>
<path fill="none" stroke="black" d="M31.1894,-12.0229C55.5529,-21.4873 89.2057,-34.5603 114.636,-44.4392"/>
<polygon fill="black" stroke="black" points="113.699,-47.8299 124.288,-48.1885 116.234,-41.3049 113.699,-47.8299"/>
<text text-anchor="middle" x="31.4128" y="-32.0311" font-family="DejaVu Sans Mono bold" font-size="14.00" fill="#005a9c">changeType</text>
</g>
<!-- Entity -->
<g id="node6" class="node"><title>Entity</title>
<ellipse fill="none" stroke="#005a9c" stroke-width="2" cx="-8.18922" cy="-161.981" rx="42.7926" ry="18"/>
<text text-anchor="middle" x="-8.18922" y="-158.281" font-family="DejaVu Sans Mono bold" font-size="14.00">Entity</text>
</g>
<!-- change&#45;&gt;Entity -->
<g id="edge5" class="edge"><title>change&#45;&gt;Entity</title>
<path fill="none" stroke="black" d="M-1.43504,-17.985C-2.75433,-46.1117 -5.29101,-100.193 -6.85234,-133.479"/>
<polygon fill="black" stroke="black" points="-10.3497,-133.344 -7.32221,-143.497 -3.35742,-133.672 -10.3497,-133.344"/>
<text text-anchor="middle" x="-41.6437" y="-79.5323" font-family="DejaVu Sans Mono bold" font-size="14.00" fill="#005a9c">appliedTo</text>
</g>
</g>
</svg>
