<?xml version="1.0" encoding="UTF-8" standalone="no"?>
<!DOCTYPE svg PUBLIC "-//W3C//DTD SVG 1.1//EN"
 "http://www.w3.org/Graphics/SVG/1.1/DTD/svg11.dtd">
<!-- Generated by graphviz version 2.38.0 (20140413.2041)
 -->
<!-- Title: intro Pages: 1 -->
<svg width="398pt" height="206pt"
 viewBox="0.00 0.00 397.57 206.00" xmlns="http://www.w3.org/2000/svg" xmlns:xlink="http://www.w3.org/1999/xlink">
<g id="graph0" class="graph" transform="scale(1 1) rotate(0) translate(4 202)">
<title>intro</title>
<polygon fill="white" stroke="none" points="-4,4 -4,-202 393.569,-202 393.569,4 -4,4"/>
<!-- top -->
<g id="node1" class="node"><title>top</title>
<ellipse fill="#005a9c" stroke="#000000" stroke-width="2" cx="346.672" cy="-99" rx="42.7926" ry="18"/>
<text text-anchor="middle" x="346.672" y="-95.3" font-family="DejaVu Sans Mono bold" font-size="14.00" fill="#ffffff">Reason</text>
</g>
<!-- Typo -->
<g id="node2" class="node"><title>Typo</title>
<ellipse fill="none" stroke="#005a9c" stroke-width="2" cx="133.888" cy="-180" rx="32.4942" ry="18"/>
<text text-anchor="middle" x="133.888" y="-176.3" font-family="DejaVu Sans Mono bold" font-size="14.00">Typo</text>
</g>
<!-- Typo&#45;&gt;top -->
<g id="edge1" class="edge"><title>Typo&#45;&gt;top</title>
<path fill="none" stroke="black" d="M166.025,-177.27C193.65,-174.02 234.647,-167.136 267.776,-153 286.248,-145.118 304.812,-132.478 319.182,-121.408"/>
<polygon fill="black" stroke="black" points="321.457,-124.071 327.125,-115.12 317.112,-118.582 321.457,-124.071"/>
</g>
<!-- KnowledgeGain -->
<g id="node3" class="node"><title>KnowledgeGain</title>
<ellipse fill="none" stroke="#005a9c" stroke-width="2" cx="133.888" cy="-126" rx="80.6858" ry="18"/>
<text text-anchor="middle" x="133.888" y="-122.3" font-family="DejaVu Sans Mono bold" font-size="14.00">KnowledgeGain</text>
</g>
<!-- KnowledgeGain&#45;&gt;top -->
<g id="edge2" class="edge"><title>KnowledgeGain&#45;&gt;top</title>
<path fill="none" stroke="black" d="M204.199,-117.122C233.99,-113.306 268.156,-108.929 295.449,-105.433"/>
<polygon fill="black" stroke="black" points="296.075,-108.882 305.549,-104.14 295.185,-101.939 296.075,-108.882"/>
</g>
<!-- MismatchWithPublication -->
<g id="node4" class="node"><title>MismatchWithPublication</title>
<ellipse fill="none" stroke="#005a9c" stroke-width="2" cx="133.888" cy="-72" rx="133.776" ry="18"/>
<text text-anchor="middle" x="133.888" y="-68.3" font-family="DejaVu Sans Mono bold" font-size="14.00">MismatchWithPublication</text>
</g>
<!-- MismatchWithPublication&#45;&gt;top -->
<g id="edge3" class="edge"><title>MismatchWithPublication&#45;&gt;top</title>
<path fill="none" stroke="black" d="M231.336,-84.3543C253.481,-87.1909 276.156,-90.0955 295.414,-92.5622"/>
<polygon fill="black" stroke="black" points="295.079,-96.0478 305.442,-93.8468 295.968,-89.1045 295.079,-96.0478"/>
</g>
<!-- ModelCuration -->
<g id="node5" class="node"><title>ModelCuration</title>
<ellipse fill="none" stroke="#005a9c" stroke-width="2" cx="133.888" cy="-18" rx="80.6858" ry="18"/>
<text text-anchor="middle" x="133.888" y="-14.3" font-family="DejaVu Sans Mono bold" font-size="14.00">ModelCuration</text>
</g>
<!-- ModelCuration&#45;&gt;top -->
<g id="edge4" class="edge"><title>ModelCuration&#45;&gt;top</title>
<path fill="none" stroke="black" d="M204.782,-26.712C225.584,-30.75 248.072,-36.5921 267.776,-45 286.248,-52.882 304.812,-65.522 319.182,-76.5919"/>
<polygon fill="black" stroke="black" points="317.112,-79.4176 327.125,-82.8804 321.457,-73.9292 317.112,-79.4176"/>
</g>
</g>
</svg>
