<?xml version="1.0" encoding="UTF-8" standalone="no"?>
<!DOCTYPE svg PUBLIC "-//W3C//DTD SVG 1.1//EN"
 "http://www.w3.org/Graphics/SVG/1.1/DTD/svg11.dtd">
<!-- Generated by graphviz version 2.38.0 (20140413.2041)
 -->
<!-- Title: intro Pages: 1 -->
<svg width="716pt" height="116pt"
 viewBox="0.00 0.00 716.09 116.00" xmlns="http://www.w3.org/2000/svg" xmlns:xlink="http://www.w3.org/1999/xlink">
<g id="graph0" class="graph" transform="scale(1 1) rotate(0) translate(4 112)">
<title>intro</title>
<polygon fill="white" stroke="none" points="-4,4 -4,-112 712.09,-112 712.09,4 -4,4"/>
<!-- top -->
<g id="node1" class="node"><title>top</title>
<ellipse fill="#005a9c" stroke="#000000" stroke-width="2" cx="279.497" cy="-90" rx="42.7926" ry="18"/>
<text text-anchor="middle" x="279.497" y="-86.3" font-family="DejaVu Sans Mono bold" font-size="14.00" fill="#ffffff">Reason</text>
</g>
<!-- Typo -->
<g id="node2" class="node"><title>Typo</title>
<ellipse fill="none" stroke="#005a9c" stroke-width="2" cx="32.4971" cy="-18" rx="32.4942" ry="18"/>
<text text-anchor="middle" x="32.4971" y="-14.3" font-family="DejaVu Sans Mono bold" font-size="14.00">Typo</text>
</g>
<!-- Typo&#45;&gt;top -->
<g id="edge1" class="edge"><title>Typo&#45;&gt;top</title>
<path fill="none" stroke="black" d="M57.4366,-29.9975C62.6896,-32.128 68.2349,-34.2419 73.4971,-36 127.049,-53.8916 190.113,-69.3169 232.226,-78.84"/>
<polygon fill="black" stroke="black" points="231.676,-82.3033 242.199,-81.0733 233.205,-75.4725 231.676,-82.3033"/>
</g>
<!-- KnowledgeGain -->
<g id="node3" class="node"><title>KnowledgeGain</title>
<ellipse fill="none" stroke="#005a9c" stroke-width="2" cx="163.497" cy="-18" rx="80.6858" ry="18"/>
<text text-anchor="middle" x="163.497" y="-14.3" font-family="DejaVu Sans Mono bold" font-size="14.00">KnowledgeGain</text>
</g>
<!-- KnowledgeGain&#45;&gt;top -->
<g id="edge2" class="edge"><title>KnowledgeGain&#45;&gt;top</title>
<path fill="none" stroke="black" d="M190.11,-35.0594C206.97,-45.2337 228.894,-58.4637 246.81,-69.2748"/>
<polygon fill="black" stroke="black" points="245.395,-72.5087 255.765,-74.6788 249.011,-66.5154 245.395,-72.5087"/>
</g>
<!-- MismatchWithPublication -->
<g id="node4" class="node"><title>MismatchWithPublication</title>
<ellipse fill="none" stroke="#005a9c" stroke-width="2" cx="395.497" cy="-18" rx="133.776" ry="18"/>
<text text-anchor="middle" x="395.497" y="-14.3" font-family="DejaVu Sans Mono bold" font-size="14.00">MismatchWithPublication</text>
</g>
<!-- MismatchWithPublication&#45;&gt;top -->
<g id="edge3" class="edge"><title>MismatchWithPublication&#45;&gt;top</title>
<path fill="none" stroke="black" d="M367.712,-35.7667C350.932,-45.893 329.469,-58.8445 311.916,-69.4369"/>
<polygon fill="black" stroke="black" points="309.892,-66.5702 303.139,-74.7336 313.509,-72.5635 309.892,-66.5702"/>
</g>
<!-- ModelCuration -->
<g id="node5" class="node"><title>ModelCuration</title>
<ellipse fill="none" stroke="#005a9c" stroke-width="2" cx="627.497" cy="-18" rx="80.6858" ry="18"/>
<text text-anchor="middle" x="627.497" y="-14.3" font-family="DejaVu Sans Mono bold" font-size="14.00">ModelCuration</text>
</g>
<!-- ModelCuration&#45;&gt;top -->
<g id="edge4" class="edge"><title>ModelCuration&#45;&gt;top</title>
<path fill="none" stroke="black" d="M569.641,-30.6377C501.902,-44.2634 390.941,-66.5831 327.676,-79.3088"/>
<polygon fill="black" stroke="black" points="326.683,-75.9385 317.569,-81.3418 328.063,-82.801 326.683,-75.9385"/>
</g>
</g>
</svg>
