<?xml version="1.0" encoding="UTF-8" standalone="no"?>
<!DOCTYPE svg PUBLIC "-//W3C//DTD SVG 1.1//EN"
 "http://www.w3.org/Graphics/SVG/1.1/DTD/svg11.dtd">
<!-- Generated by graphviz version 2.38.0 (20140413.2041)
 -->
<!-- Title: intro Pages: 1 -->
<svg width="1346pt" height="1097pt"
 viewBox="0.00 0.00 1346.20 1097.00" xmlns="http://www.w3.org/2000/svg" xmlns:xlink="http://www.w3.org/1999/xlink">
<g id="graph0" class="graph" transform="scale(1 1) rotate(0) translate(4 1093)">
<title>intro</title>
<polygon fill="white" stroke="none" points="-4,4 -4,-1093 1342.2,-1093 1342.2,4 -4,4"/>
<!-- top -->
<g id="node1" class="node"><title>top</title>
<ellipse fill="#005a9c" stroke="#000000" stroke-width="2" cx="42.8962" cy="-720" rx="42.7926" ry="18"/>
<text text-anchor="middle" x="42.8962" y="-716.3" font-family="DejaVu Sans Mono bold" font-size="14.00" fill="#ffffff">Target</text>
</g>
<!-- Annotation -->
<g id="node2" class="node"><title>Annotation</title>
<ellipse fill="none" stroke="#005a9c" stroke-width="2" cx="207.585" cy="-936" rx="64.189" ry="18"/>
<text text-anchor="middle" x="207.585" y="-932.3" font-family="DejaVu Sans Mono bold" font-size="14.00">Annotation</text>
</g>
<!-- Annotation&#45;&gt;top -->
<g id="edge1" class="edge"><title>Annotation&#45;&gt;top</title>
<path fill="none" stroke="black" d="M193.271,-918.324C164.529,-880.162 96.5688,-789.933 63.142,-745.552"/>
<polygon fill="black" stroke="black" points="65.751,-743.199 56.939,-737.317 60.1596,-747.41 65.751,-743.199"/>
</g>
<!-- CreationDate -->
<g id="node3" class="node"><title>CreationDate</title>
<ellipse fill="none" stroke="#005a9c" stroke-width="2" cx="692.298" cy="-1071" rx="75.2868" ry="18"/>
<text text-anchor="middle" x="692.298" y="-1067.3" font-family="DejaVu Sans Mono bold" font-size="14.00">CreationDate</text>
</g>
<!-- Date -->
<g id="node4" class="node"><title>Date</title>
<ellipse fill="none" stroke="#005a9c" stroke-width="2" cx="436.618" cy="-1044" rx="32.4942" ry="18"/>
<text text-anchor="middle" x="436.618" y="-1040.3" font-family="DejaVu Sans Mono bold" font-size="14.00">Date</text>
</g>
<!-- CreationDate&#45;&gt;Date -->
<g id="edge2" class="edge"><title>CreationDate&#45;&gt;Date</title>
<path fill="none" stroke="black" d="M622.983,-1063.73C577.107,-1058.85 518.149,-1052.57 479.186,-1048.42"/>
<polygon fill="black" stroke="black" points="479.069,-1044.89 468.755,-1047.31 478.328,-1051.85 479.069,-1044.89"/>
</g>
<!-- Date&#45;&gt;Annotation -->
<g id="edge4" class="edge"><title>Date&#45;&gt;Annotation</title>
<path fill="none" stroke="black" d="M404.932,-1039.08C383.2,-1034.92 353.707,-1027.86 329.377,-1017 295.494,-1001.88 260.708,-977.426 237.221,-959.339"/>
<polygon fill="black" stroke="black" points="239.135,-956.393 229.101,-952.992 234.825,-961.908 239.135,-956.393"/>
</g>
<!-- ModificationDate -->
<g id="node5" class="node"><title>ModificationDate</title>
<ellipse fill="none" stroke="#005a9c" stroke-width="2" cx="692.298" cy="-1017" rx="96.6831" ry="18"/>
<text text-anchor="middle" x="692.298" y="-1013.3" font-family="DejaVu Sans Mono bold" font-size="14.00">ModificationDate</text>
</g>
<!-- ModificationDate&#45;&gt;Date -->
<g id="edge3" class="edge"><title>ModificationDate&#45;&gt;Date</title>
<path fill="none" stroke="black" d="M607.882,-1025.88C564.695,-1030.47 513.868,-1035.88 479.062,-1039.59"/>
<polygon fill="black" stroke="black" points="478.374,-1036.14 468.8,-1040.68 479.115,-1043.1 478.374,-1036.14"/>
</g>
<!-- OntologyLink -->
<g id="node6" class="node"><title>OntologyLink</title>
<ellipse fill="none" stroke="#005a9c" stroke-width="2" cx="436.618" cy="-990" rx="75.2868" ry="18"/>
<text text-anchor="middle" x="436.618" y="-986.3" font-family="DejaVu Sans Mono bold" font-size="14.00">OntologyLink</text>
</g>
<!-- OntologyLink&#45;&gt;Annotation -->
<g id="edge5" class="edge"><title>OntologyLink&#45;&gt;Annotation</title>
<path fill="none" stroke="black" d="M382.675,-977.408C348.062,-969.175 302.823,-958.415 267.137,-949.927"/>
<polygon fill="black" stroke="black" points="267.88,-946.506 257.342,-947.597 266.261,-953.316 267.88,-946.506"/>
</g>
<!-- TextualDescription -->
<g id="node7" class="node"><title>TextualDescription</title>
<ellipse fill="none" stroke="#005a9c" stroke-width="2" cx="436.618" cy="-936" rx="107.482" ry="18"/>
<text text-anchor="middle" x="436.618" y="-932.3" font-family="DejaVu Sans Mono bold" font-size="14.00">TextualDescription</text>
</g>
<!-- TextualDescription&#45;&gt;Annotation -->
<g id="edge6" class="edge"><title>TextualDescription&#45;&gt;Annotation</title>
<path fill="none" stroke="black" d="M329.081,-936C313.262,-936 297.261,-936 282.313,-936"/>
<polygon fill="black" stroke="black" points="282.149,-932.5 272.149,-936 282.149,-939.5 282.149,-932.5"/>
</g>
<!-- Person -->
<g id="node8" class="node"><title>Person</title>
<ellipse fill="none" stroke="#005a9c" stroke-width="2" cx="436.618" cy="-882" rx="42.7926" ry="18"/>
<text text-anchor="middle" x="436.618" y="-878.3" font-family="DejaVu Sans Mono bold" font-size="14.00">Person</text>
</g>
<!-- Person&#45;&gt;Annotation -->
<g id="edge7" class="edge"><title>Person&#45;&gt;Annotation</title>
<path fill="none" stroke="black" d="M398.889,-890.736C363.22,-899.22 308.51,-912.233 266.89,-922.132"/>
<polygon fill="black" stroke="black" points="266.068,-918.73 257.149,-924.449 267.688,-925.54 266.068,-918.73"/>
</g>
<!-- Contributor -->
<g id="node9" class="node"><title>Contributor</title>
<ellipse fill="none" stroke="#005a9c" stroke-width="2" cx="692.298" cy="-882" rx="69.5877" ry="18"/>
<text text-anchor="middle" x="692.298" y="-878.3" font-family="DejaVu Sans Mono bold" font-size="14.00">Contributor</text>
</g>
<!-- Contributor&#45;&gt;Person -->
<g id="edge8" class="edge"><title>Contributor&#45;&gt;Person</title>
<path fill="none" stroke="black" d="M622.649,-882C580.936,-882 528.503,-882 490.113,-882"/>
<polygon fill="black" stroke="black" points="489.678,-878.5 479.678,-882 489.678,-885.5 489.678,-878.5"/>
</g>
<!-- Creator -->
<g id="node10" class="node"><title>Creator</title>
<ellipse fill="none" stroke="#005a9c" stroke-width="2" cx="947.979" cy="-882" rx="48.1917" ry="18"/>
<text text-anchor="middle" x="947.979" y="-878.3" font-family="DejaVu Sans Mono bold" font-size="14.00">Creator</text>
</g>
<!-- Creator&#45;&gt;Contributor -->
<g id="edge9" class="edge"><title>Creator&#45;&gt;Contributor</title>
<path fill="none" stroke="black" d="M899.858,-882C864.117,-882 814.176,-882 772.353,-882"/>
<polygon fill="black" stroke="black" points="772.186,-878.5 762.186,-882 772.186,-885.5 772.186,-878.5"/>
</g>
<!-- Attribution -->
<g id="node11" class="node"><title>Attribution</title>
<ellipse fill="none" stroke="#005a9c" stroke-width="2" cx="692.298" cy="-936" rx="69.5877" ry="18"/>
<text text-anchor="middle" x="692.298" y="-932.3" font-family="DejaVu Sans Mono bold" font-size="14.00">Attribution</text>
</g>
<!-- Attribution&#45;&gt;TextualDescription -->
<g id="edge10" class="edge"><title>Attribution&#45;&gt;TextualDescription</title>
<path fill="none" stroke="black" d="M622.649,-936C601.464,-936 577.514,-936 554.043,-936"/>
<polygon fill="black" stroke="black" points="554.022,-932.5 544.022,-936 554.022,-939.5 554.022,-932.5"/>
</g>
<!-- DocumentLayout -->
<g id="node12" class="node"><title>DocumentLayout</title>
<ellipse fill="none" stroke="#005a9c" stroke-width="2" cx="207.585" cy="-720" rx="85.5853" ry="18"/>
<text text-anchor="middle" x="207.585" y="-716.3" font-family="DejaVu Sans Mono bold" font-size="14.00">DocumentLayout</text>
</g>
<!-- DocumentLayout&#45;&gt;top -->
<g id="edge11" class="edge"><title>DocumentLayout&#45;&gt;top</title>
<path fill="none" stroke="black" d="M121.429,-720C112.78,-720 104.188,-720 96.0467,-720"/>
<polygon fill="black" stroke="black" points="96.0042,-716.5 86.0041,-720 96.0041,-723.5 96.0042,-716.5"/>
</g>
<!-- AnnotationScheme -->
<g id="node13" class="node"><title>AnnotationScheme</title>
<ellipse fill="none" stroke="#005a9c" stroke-width="2" cx="436.618" cy="-828" rx="96.6831" ry="18"/>
<text text-anchor="middle" x="436.618" y="-824.3" font-family="DejaVu Sans Mono bold" font-size="14.00">AnnotationScheme</text>
</g>
<!-- AnnotationScheme&#45;&gt;DocumentLayout -->
<g id="edge12" class="edge"><title>AnnotationScheme&#45;&gt;DocumentLayout</title>
<path fill="none" stroke="black" d="M369.534,-814.938C355.961,-811.227 341.977,-806.623 329.377,-801 295.905,-786.061 261.551,-762.017 238.08,-743.999"/>
<polygon fill="black" stroke="black" points="239.986,-741.047 229.947,-737.662 235.683,-746.569 239.986,-741.047"/>
</g>
<!-- IdentifiersScheme -->
<g id="node14" class="node"><title>IdentifiersScheme</title>
<ellipse fill="none" stroke="#005a9c" stroke-width="2" cx="436.618" cy="-774" rx="102.082" ry="18"/>
<text text-anchor="middle" x="436.618" y="-770.3" font-family="DejaVu Sans Mono bold" font-size="14.00">IdentifiersScheme</text>
</g>
<!-- IdentifiersScheme&#45;&gt;DocumentLayout -->
<g id="edge13" class="edge"><title>IdentifiersScheme&#45;&gt;DocumentLayout</title>
<path fill="none" stroke="black" d="M375.075,-759.6C344.257,-752.27 306.725,-743.343 275.102,-735.821"/>
<polygon fill="black" stroke="black" points="275.597,-732.341 265.059,-733.432 273.977,-739.151 275.597,-732.341"/>
</g>
<!-- MetaIdentifier -->
<g id="node15" class="node"><title>MetaIdentifier</title>
<ellipse fill="none" stroke="#005a9c" stroke-width="2" cx="436.618" cy="-720" rx="85.5853" ry="18"/>
<text text-anchor="middle" x="436.618" y="-716.3" font-family="DejaVu Sans Mono bold" font-size="14.00">MetaIdentifier</text>
</g>
<!-- MetaIdentifier&#45;&gt;DocumentLayout -->
<g id="edge14" class="edge"><title>MetaIdentifier&#45;&gt;DocumentLayout</title>
<path fill="none" stroke="black" d="M350.756,-720C335.465,-720 319.432,-720 303.869,-720"/>
<polygon fill="black" stroke="black" points="303.721,-716.5 293.721,-720 303.721,-723.5 303.721,-716.5"/>
</g>
<!-- Specification -->
<g id="node16" class="node"><title>Specification</title>
<ellipse fill="none" stroke="#005a9c" stroke-width="2" cx="436.618" cy="-666" rx="80.6858" ry="18"/>
<text text-anchor="middle" x="436.618" y="-662.3" font-family="DejaVu Sans Mono bold" font-size="14.00">Specification</text>
</g>
<!-- Specification&#45;&gt;DocumentLayout -->
<g id="edge15" class="edge"><title>Specification&#45;&gt;DocumentLayout</title>
<path fill="none" stroke="black" d="M380.659,-679.072C348.768,-686.657 308.386,-696.262 274.757,-704.261"/>
<polygon fill="black" stroke="black" points="273.929,-700.86 265.011,-706.579 275.549,-707.67 273.929,-700.86"/>
</g>
<!-- CellMLSpecification -->
<g id="node17" class="node"><title>CellMLSpecification</title>
<ellipse fill="none" stroke="#005a9c" stroke-width="2" cx="692.298" cy="-720" rx="112.38" ry="18"/>
<text text-anchor="middle" x="692.298" y="-716.3" font-family="DejaVu Sans Mono bold" font-size="14.00">CellMLSpecification</text>
</g>
<!-- CellMLSpecification&#45;&gt;Specification -->
<g id="edge16" class="edge"><title>CellMLSpecification&#45;&gt;Specification</title>
<path fill="none" stroke="black" d="M623.982,-705.671C587.488,-697.902 542.491,-688.324 505.855,-680.525"/>
<polygon fill="black" stroke="black" points="506.267,-677.035 495.757,-678.376 504.81,-683.881 506.267,-677.035"/>
</g>
<!-- SbmlSpecification -->
<g id="node18" class="node"><title>SbmlSpecification</title>
<ellipse fill="none" stroke="#005a9c" stroke-width="2" cx="692.298" cy="-666" rx="102.082" ry="18"/>
<text text-anchor="middle" x="692.298" y="-662.3" font-family="DejaVu Sans Mono bold" font-size="14.00">SbmlSpecification</text>
</g>
<!-- SbmlSpecification&#45;&gt;Specification -->
<g id="edge17" class="edge"><title>SbmlSpecification&#45;&gt;Specification</title>
<path fill="none" stroke="black" d="M589.943,-666C569.283,-666 547.681,-666 527.455,-666"/>
<polygon fill="black" stroke="black" points="527.332,-662.5 517.332,-666 527.332,-669.5 527.332,-662.5"/>
</g>
<!-- SbmlLevel -->
<g id="node19" class="node"><title>SbmlLevel</title>
<ellipse fill="none" stroke="#005a9c" stroke-width="2" cx="947.979" cy="-693" rx="59.2899" ry="18"/>
<text text-anchor="middle" x="947.979" y="-689.3" font-family="DejaVu Sans Mono bold" font-size="14.00">SbmlLevel</text>
</g>
<!-- SbmlLevel&#45;&gt;SbmlSpecification -->
<g id="edge18" class="edge"><title>SbmlLevel&#45;&gt;SbmlSpecification</title>
<path fill="none" stroke="black" d="M891.934,-687.141C862.225,-683.979 824.68,-679.983 790.251,-676.319"/>
<polygon fill="black" stroke="black" points="790.471,-672.823 780.157,-675.245 789.73,-679.783 790.471,-672.823"/>
</g>
<!-- SbmlVersion -->
<g id="node20" class="node"><title>SbmlVersion</title>
<ellipse fill="none" stroke="#005a9c" stroke-width="2" cx="947.979" cy="-639" rx="69.5877" ry="18"/>
<text text-anchor="middle" x="947.979" y="-635.3" font-family="DejaVu Sans Mono bold" font-size="14.00">SbmlVersion</text>
</g>
<!-- SbmlVersion&#45;&gt;SbmlSpecification -->
<g id="edge19" class="edge"><title>SbmlVersion&#45;&gt;SbmlSpecification</title>
<path fill="none" stroke="black" d="M883.292,-645.778C855.083,-648.781 821.28,-652.379 790.057,-655.702"/>
<polygon fill="black" stroke="black" points="789.594,-652.231 780.021,-656.77 790.335,-659.192 789.594,-652.231"/>
</g>
<!-- VcardScheme -->
<g id="node21" class="node"><title>VcardScheme</title>
<ellipse fill="none" stroke="#005a9c" stroke-width="2" cx="436.618" cy="-612" rx="69.5877" ry="18"/>
<text text-anchor="middle" x="436.618" y="-608.3" font-family="DejaVu Sans Mono bold" font-size="14.00">VcardScheme</text>
</g>
<!-- VcardScheme&#45;&gt;DocumentLayout -->
<g id="edge20" class="edge"><title>VcardScheme&#45;&gt;DocumentLayout</title>
<path fill="none" stroke="black" d="M379.815,-622.394C363.187,-626.49 345.192,-631.942 329.377,-639 295.905,-653.939 261.551,-677.983 238.08,-696.001"/>
<polygon fill="black" stroke="black" points="235.683,-693.431 229.947,-702.338 239.986,-698.953 235.683,-693.431"/>
</g>
<!-- EncodedSystem -->
<g id="node22" class="node"><title>EncodedSystem</title>
<ellipse fill="none" stroke="#005a9c" stroke-width="2" cx="207.585" cy="-396" rx="80.6858" ry="18"/>
<text text-anchor="middle" x="207.585" y="-392.3" font-family="DejaVu Sans Mono bold" font-size="14.00">EncodedSystem</text>
</g>
<!-- EncodedSystem&#45;&gt;top -->
<g id="edge21" class="edge"><title>EncodedSystem&#45;&gt;top</title>
<path fill="none" stroke="black" d="M197.606,-413.881C170.551,-467.762 89.6953,-628.79 57.4197,-693.067"/>
<polygon fill="black" stroke="black" points="54.2066,-691.667 52.847,-702.174 60.4622,-694.808 54.2066,-691.667"/>
</g>
<!-- MathematicalModel -->
<g id="node23" class="node"><title>MathematicalModel</title>
<ellipse fill="none" stroke="#005a9c" stroke-width="2" cx="436.618" cy="-396" rx="102.082" ry="18"/>
<text text-anchor="middle" x="436.618" y="-392.3" font-family="DejaVu Sans Mono bold" font-size="14.00">MathematicalModel</text>
</g>
<!-- MathematicalModel&#45;&gt;EncodedSystem -->
<g id="edge22" class="edge"><title>MathematicalModel&#45;&gt;EncodedSystem</title>
<path fill="none" stroke="black" d="M334.385,-396C322.496,-396 310.424,-396 298.701,-396"/>
<polygon fill="black" stroke="black" points="298.502,-392.5 288.502,-396 298.502,-399.5 298.502,-392.5"/>
</g>
<!-- Network -->
<g id="node24" class="node"><title>Network</title>
<ellipse fill="none" stroke="#005a9c" stroke-width="2" cx="436.618" cy="-99" rx="48.1917" ry="18"/>
<text text-anchor="middle" x="436.618" y="-95.3" font-family="DejaVu Sans Mono bold" font-size="14.00">Network</text>
</g>
<!-- Network&#45;&gt;EncodedSystem -->
<g id="edge23" class="edge"><title>Network&#45;&gt;EncodedSystem</title>
<path fill="none" stroke="black" d="M422.43,-116.252C384.365,-166.048 274.134,-310.25 228.613,-369.8"/>
<polygon fill="black" stroke="black" points="225.675,-367.88 222.383,-377.95 231.236,-372.131 225.675,-367.88"/>
</g>
<!-- ComponentDefinition -->
<g id="node25" class="node"><title>ComponentDefinition</title>
<ellipse fill="none" stroke="#005a9c" stroke-width="2" cx="692.298" cy="-612" rx="112.38" ry="18"/>
<text text-anchor="middle" x="692.298" y="-608.3" font-family="DejaVu Sans Mono bold" font-size="14.00">ComponentDefinition</text>
</g>
<!-- ComponentDefinition&#45;&gt;MathematicalModel -->
<g id="edge24" class="edge"><title>ComponentDefinition&#45;&gt;MathematicalModel</title>
<path fill="none" stroke="black" d="M610.578,-599.526C599.745,-595.862 589.173,-591.125 579.858,-585 516.987,-543.659 471.248,-464.676 450.324,-423.113"/>
<polygon fill="black" stroke="black" points="453.45,-421.539 445.89,-414.117 447.171,-424.634 453.45,-421.539"/>
</g>
<!-- EventDefinition -->
<g id="node26" class="node"><title>EventDefinition</title>
<ellipse fill="none" stroke="#005a9c" stroke-width="2" cx="692.298" cy="-558" rx="90.9839" ry="18"/>
<text text-anchor="middle" x="692.298" y="-554.3" font-family="DejaVu Sans Mono bold" font-size="14.00">EventDefinition</text>
</g>
<!-- EventDefinition&#45;&gt;MathematicalModel -->
<g id="edge25" class="edge"><title>EventDefinition&#45;&gt;MathematicalModel</title>
<path fill="none" stroke="black" d="M620.855,-546.826C606.77,-542.986 592.447,-537.853 579.858,-531 529.019,-503.326 482.97,-452.867 457.772,-422.093"/>
<polygon fill="black" stroke="black" points="460.229,-419.563 451.231,-413.97 454.777,-423.954 460.229,-419.563"/>
</g>
<!-- FunctionDefinition -->
<g id="node27" class="node"><title>FunctionDefinition</title>
<ellipse fill="none" stroke="#005a9c" stroke-width="2" cx="692.298" cy="-504" rx="107.482" ry="18"/>
<text text-anchor="middle" x="692.298" y="-500.3" font-family="DejaVu Sans Mono bold" font-size="14.00">FunctionDefinition</text>
</g>
<!-- FunctionDefinition&#45;&gt;MathematicalModel -->
<g id="edge26" class="edge"><title>FunctionDefinition&#45;&gt;MathematicalModel</title>
<path fill="none" stroke="black" d="M621.993,-490.397C607.825,-486.734 593.181,-482.286 579.858,-477 541.006,-461.586 499.845,-437.147 471.854,-419.14"/>
<polygon fill="black" stroke="black" points="473.538,-416.061 463.248,-413.54 469.72,-421.928 473.538,-416.061"/>
</g>
<!-- Kinetics -->
<g id="node28" class="node"><title>Kinetics</title>
<ellipse fill="none" stroke="#005a9c" stroke-width="2" cx="692.298" cy="-450" rx="53.8905" ry="18"/>
<text text-anchor="middle" x="692.298" y="-446.3" font-family="DejaVu Sans Mono bold" font-size="14.00">Kinetics</text>
</g>
<!-- Kinetics&#45;&gt;MathematicalModel -->
<g id="edge27" class="edge"><title>Kinetics&#45;&gt;MathematicalModel</title>
<path fill="none" stroke="black" d="M646.529,-440.47C609.448,-432.577 555.968,-421.193 512.401,-411.919"/>
<polygon fill="black" stroke="black" points="512.922,-408.452 502.413,-409.793 511.465,-415.298 512.922,-408.452"/>
</g>
<!-- ParameterDefinition -->
<g id="node29" class="node"><title>ParameterDefinition</title>
<ellipse fill="none" stroke="#005a9c" stroke-width="2" cx="692.298" cy="-396" rx="112.38" ry="18"/>
<text text-anchor="middle" x="692.298" y="-392.3" font-family="DejaVu Sans Mono bold" font-size="14.00">ParameterDefinition</text>
</g>
<!-- ParameterDefinition&#45;&gt;MathematicalModel -->
<g id="edge28" class="edge"><title>ParameterDefinition&#45;&gt;MathematicalModel</title>
<path fill="none" stroke="black" d="M579.661,-396C569.492,-396 559.191,-396 549.024,-396"/>
<polygon fill="black" stroke="black" points="548.911,-392.5 538.911,-396 548.911,-399.5 548.911,-392.5"/>
</g>
<!-- Rules -->
<g id="node30" class="node"><title>Rules</title>
<ellipse fill="none" stroke="#005a9c" stroke-width="2" cx="692.298" cy="-342" rx="37.8943" ry="18"/>
<text text-anchor="middle" x="692.298" y="-338.3" font-family="DejaVu Sans Mono bold" font-size="14.00">Rules</text>
</g>
<!-- Rules&#45;&gt;MathematicalModel -->
<g id="edge29" class="edge"><title>Rules&#45;&gt;MathematicalModel</title>
<path fill="none" stroke="black" d="M657.611,-349.171C620.807,-357.005 560.681,-369.804 512.581,-380.043"/>
<polygon fill="black" stroke="black" points="511.565,-376.681 502.512,-382.186 513.022,-383.527 511.565,-376.681"/>
</g>
<!-- SpeciesDefinition -->
<g id="node31" class="node"><title>SpeciesDefinition</title>
<ellipse fill="none" stroke="#005a9c" stroke-width="2" cx="692.298" cy="-288" rx="102.082" ry="18"/>
<text text-anchor="middle" x="692.298" y="-284.3" font-family="DejaVu Sans Mono bold" font-size="14.00">SpeciesDefinition</text>
</g>
<!-- SpeciesDefinition&#45;&gt;MathematicalModel -->
<g id="edge30" class="edge"><title>SpeciesDefinition&#45;&gt;MathematicalModel</title>
<path fill="none" stroke="black" d="M623.172,-301.299C608.639,-305.02 593.551,-309.568 579.858,-315 541.006,-330.414 499.845,-354.853 471.854,-372.86"/>
<polygon fill="black" stroke="black" points="469.72,-370.072 463.248,-378.46 473.538,-375.939 469.72,-370.072"/>
</g>
<!-- UnitDefinition -->
<g id="node32" class="node"><title>UnitDefinition</title>
<ellipse fill="none" stroke="#005a9c" stroke-width="2" cx="692.298" cy="-234" rx="85.5853" ry="18"/>
<text text-anchor="middle" x="692.298" y="-230.3" font-family="DejaVu Sans Mono bold" font-size="14.00">UnitDefinition</text>
</g>
<!-- UnitDefinition&#45;&gt;MathematicalModel -->
<g id="edge31" class="edge"><title>UnitDefinition&#45;&gt;MathematicalModel</title>
<path fill="none" stroke="black" d="M622.907,-244.623C608.166,-248.518 593.059,-253.814 579.858,-261 529.019,-288.674 482.97,-339.133 457.772,-369.907"/>
<polygon fill="black" stroke="black" points="454.777,-368.046 451.231,-378.03 460.229,-372.437 454.777,-368.046"/>
</g>
<!-- VariableDefinition -->
<g id="node33" class="node"><title>VariableDefinition</title>
<ellipse fill="none" stroke="#005a9c" stroke-width="2" cx="692.298" cy="-180" rx="107.482" ry="18"/>
<text text-anchor="middle" x="692.298" y="-176.3" font-family="DejaVu Sans Mono bold" font-size="14.00">VariableDefinition</text>
</g>
<!-- VariableDefinition&#45;&gt;MathematicalModel -->
<g id="edge32" class="edge"><title>VariableDefinition&#45;&gt;MathematicalModel</title>
<path fill="none" stroke="black" d="M612.031,-191.99C600.691,-195.718 589.589,-200.602 579.858,-207 516.987,-248.341 471.248,-327.324 450.324,-368.887"/>
<polygon fill="black" stroke="black" points="447.171,-367.366 445.89,-377.883 453.45,-370.461 447.171,-367.366"/>
</g>
<!-- ComponentHierarchy -->
<g id="node34" class="node"><title>ComponentHierarchy</title>
<ellipse fill="none" stroke="#005a9c" stroke-width="2" cx="692.298" cy="-126" rx="107.482" ry="18"/>
<text text-anchor="middle" x="692.298" y="-122.3" font-family="DejaVu Sans Mono bold" font-size="14.00">ComponentHierarchy</text>
</g>
<!-- ComponentHierarchy&#45;&gt;Network -->
<g id="edge33" class="edge"><title>ComponentHierarchy&#45;&gt;Network</title>
<path fill="none" stroke="black" d="M601.146,-116.405C565.036,-112.562 524.585,-108.256 492.95,-104.889"/>
<polygon fill="black" stroke="black" points="493.319,-101.409 483.005,-103.831 492.578,-108.369 493.319,-101.409"/>
</g>
<!-- ReactionNetwork -->
<g id="node35" class="node"><title>ReactionNetwork</title>
<ellipse fill="none" stroke="#005a9c" stroke-width="2" cx="692.298" cy="-72" rx="90.9839" ry="18"/>
<text text-anchor="middle" x="692.298" y="-68.3" font-family="DejaVu Sans Mono bold" font-size="14.00">ReactionNetwork</text>
</g>
<!-- ReactionNetwork&#45;&gt;Network -->
<g id="edge34" class="edge"><title>ReactionNetwork&#45;&gt;Network</title>
<path fill="none" stroke="black" d="M611.728,-80.4689C573.243,-84.5649 527.983,-89.3821 493.256,-93.0782"/>
<polygon fill="black" stroke="black" points="492.87,-89.5994 483.297,-94.1382 493.611,-96.5601 492.87,-89.5994"/>
</g>
<!-- VariableConnections -->
<g id="node36" class="node"><title>VariableConnections</title>
<ellipse fill="none" stroke="#005a9c" stroke-width="2" cx="692.298" cy="-18" rx="112.38" ry="18"/>
<text text-anchor="middle" x="692.298" y="-14.3" font-family="DejaVu Sans Mono bold" font-size="14.00">VariableConnections</text>
</g>
<!-- VariableConnections&#45;&gt;Network -->
<g id="edge35" class="edge"><title>VariableConnections&#45;&gt;Network</title>
<path fill="none" stroke="black" d="M625.515,-32.4917C610.417,-36.2172 594.501,-40.4662 579.858,-45 545.211,-55.7276 506.81,-70.4827 478.65,-81.8585"/>
<polygon fill="black" stroke="black" points="477.082,-78.7178 469.139,-85.7292 479.72,-85.2014 477.082,-78.7178"/>
</g>
<!-- ReactionReversibility -->
<g id="node37" class="node"><title>ReactionReversibility</title>
<ellipse fill="none" stroke="#005a9c" stroke-width="2" cx="1214.71" cy="-72" rx="123.478" ry="18"/>
<text text-anchor="middle" x="1214.71" y="-68.3" font-family="DejaVu Sans Mono bold" font-size="14.00">ReactionReversibility</text>
</g>
<!-- ReactionDefinition -->
<g id="node38" class="node"><title>ReactionDefinition</title>
<ellipse fill="none" stroke="#005a9c" stroke-width="2" cx="947.979" cy="-72" rx="107.482" ry="18"/>
<text text-anchor="middle" x="947.979" y="-68.3" font-family="DejaVu Sans Mono bold" font-size="14.00">ReactionDefinition</text>
</g>
<!-- ReactionReversibility&#45;&gt;ReactionDefinition -->
<g id="edge36" class="edge"><title>ReactionReversibility&#45;&gt;ReactionDefinition</title>
<path fill="none" stroke="black" d="M1091.03,-72C1082.57,-72 1074.05,-72 1065.63,-72"/>
<polygon fill="black" stroke="black" points="1065.4,-68.5001 1055.4,-72 1065.4,-75.5001 1065.4,-68.5001"/>
</g>
<!-- ReactionDefinition&#45;&gt;ReactionNetwork -->
<g id="edge37" class="edge"><title>ReactionDefinition&#45;&gt;ReactionNetwork</title>
<path fill="none" stroke="black" d="M840.498,-72C824.926,-72 808.934,-72 793.494,-72"/>
<polygon fill="black" stroke="black" points="793.437,-68.5001 783.437,-72 793.437,-75.5001 793.437,-68.5001"/>
</g>
</g>
</svg>
