<?xml version="1.0" encoding="UTF-8" standalone="no"?>
<!DOCTYPE svg PUBLIC "-//W3C//DTD SVG 1.1//EN"
 "http://www.w3.org/Graphics/SVG/1.1/DTD/svg11.dtd">
<!-- Generated by graphviz version 2.38.0 (20140413.2041)
 -->
<!-- Title: intro Pages: 1 -->
<svg width="4175pt" height="404pt"
 viewBox="0.00 0.00 4174.83 404.00" xmlns="http://www.w3.org/2000/svg" xmlns:xlink="http://www.w3.org/1999/xlink">
<g id="graph0" class="graph" transform="scale(1 1) rotate(0) translate(4 400)">
<title>intro</title>
<polygon fill="white" stroke="none" points="-4,4 -4,-400 4170.83,-400 4170.83,4 -4,4"/>
<!-- top -->
<g id="node1" class="node"><title>top</title>
<ellipse fill="#005a9c" stroke="#000000" stroke-width="2" cx="1544.39" cy="-378" rx="42.7926" ry="18"/>
<text text-anchor="middle" x="1544.39" y="-374.3" font-family="DejaVu Sans Mono bold" font-size="14.00" fill="#ffffff">Target</text>
</g>
<!-- AnnotationDescription -->
<g id="node2" class="node"><title>AnnotationDescription</title>
<ellipse fill="none" stroke="#005a9c" stroke-width="2" cx="521.393" cy="-306" rx="123.478" ry="18"/>
<text text-anchor="middle" x="521.393" y="-302.3" font-family="DejaVu Sans Mono bold" font-size="14.00">AnnotationDescription</text>
</g>
<!-- AnnotationDescription&#45;&gt;top -->
<g id="edge1" class="edge"><title>AnnotationDescription&#45;&gt;top</title>
<path fill="none" stroke="black" d="M630.872,-314.491C849.516,-329.452 1332.91,-362.529 1492.29,-373.435"/>
<polygon fill="black" stroke="black" points="1492.1,-376.93 1502.31,-374.121 1492.58,-369.946 1492.1,-376.93"/>
</g>
<!-- CreationDate -->
<g id="node3" class="node"><title>CreationDate</title>
<ellipse fill="none" stroke="#005a9c" stroke-width="2" cx="75.3933" cy="-162" rx="75.2868" ry="18"/>
<text text-anchor="middle" x="75.3933" y="-158.3" font-family="DejaVu Sans Mono bold" font-size="14.00">CreationDate</text>
</g>
<!-- Date -->
<g id="node4" class="node"><title>Date</title>
<ellipse fill="none" stroke="#005a9c" stroke-width="2" cx="194.393" cy="-234" rx="32.4942" ry="18"/>
<text text-anchor="middle" x="194.393" y="-230.3" font-family="DejaVu Sans Mono bold" font-size="14.00">Date</text>
</g>
<!-- CreationDate&#45;&gt;Date -->
<g id="edge2" class="edge"><title>CreationDate&#45;&gt;Date</title>
<path fill="none" stroke="black" d="M102.396,-178.884C120.665,-189.63 144.829,-203.845 163.808,-215.009"/>
<polygon fill="black" stroke="black" points="162.266,-218.162 172.66,-220.216 165.815,-212.129 162.266,-218.162"/>
</g>
<!-- Date&#45;&gt;AnnotationDescription -->
<g id="edge4" class="edge"><title>Date&#45;&gt;AnnotationDescription</title>
<path fill="none" stroke="black" d="M218.975,-245.908C224.622,-248.144 230.655,-250.324 236.393,-252 297.447,-269.837 367.68,-282.979 423.148,-291.715"/>
<polygon fill="black" stroke="black" points="422.91,-295.22 433.328,-293.296 423.983,-288.303 422.91,-295.22"/>
</g>
<!-- ModificationDate -->
<g id="node5" class="node"><title>ModificationDate</title>
<ellipse fill="none" stroke="#005a9c" stroke-width="2" cx="265.393" cy="-162" rx="96.6831" ry="18"/>
<text text-anchor="middle" x="265.393" y="-158.3" font-family="DejaVu Sans Mono bold" font-size="14.00">ModificationDate</text>
</g>
<!-- ModificationDate&#45;&gt;Date -->
<g id="edge3" class="edge"><title>ModificationDate&#45;&gt;Date</title>
<path fill="none" stroke="black" d="M248.206,-179.945C238.918,-189.102 227.327,-200.53 217.284,-210.432"/>
<polygon fill="black" stroke="black" points="214.633,-208.13 209.969,-217.644 219.547,-213.115 214.633,-208.13"/>
</g>
<!-- OntologyLink -->
<g id="node6" class="node"><title>OntologyLink</title>
<ellipse fill="none" stroke="#005a9c" stroke-width="2" cx="320.393" cy="-234" rx="75.2868" ry="18"/>
<text text-anchor="middle" x="320.393" y="-230.3" font-family="DejaVu Sans Mono bold" font-size="14.00">OntologyLink</text>
</g>
<!-- OntologyLink&#45;&gt;AnnotationDescription -->
<g id="edge5" class="edge"><title>OntologyLink&#45;&gt;AnnotationDescription</title>
<path fill="none" stroke="black" d="M361.069,-249.166C391.346,-259.71 433.014,-274.221 466.282,-285.807"/>
<polygon fill="black" stroke="black" points="465.275,-289.162 475.87,-289.146 467.577,-282.552 465.275,-289.162"/>
</g>
<!-- TextualDescription -->
<g id="node7" class="node"><title>TextualDescription</title>
<ellipse fill="none" stroke="#005a9c" stroke-width="2" cx="521.393" cy="-234" rx="107.482" ry="18"/>
<text text-anchor="middle" x="521.393" y="-230.3" font-family="DejaVu Sans Mono bold" font-size="14.00">TextualDescription</text>
</g>
<!-- TextualDescription&#45;&gt;AnnotationDescription -->
<g id="edge6" class="edge"><title>TextualDescription&#45;&gt;AnnotationDescription</title>
<path fill="none" stroke="black" d="M521.393,-252.303C521.393,-260.017 521.393,-269.288 521.393,-277.888"/>
<polygon fill="black" stroke="black" points="517.893,-277.896 521.393,-287.896 524.893,-277.896 517.893,-277.896"/>
</g>
<!-- Person -->
<g id="node8" class="node"><title>Person</title>
<ellipse fill="none" stroke="#005a9c" stroke-width="2" cx="689.393" cy="-234" rx="42.7926" ry="18"/>
<text text-anchor="middle" x="689.393" y="-230.3" font-family="DejaVu Sans Mono bold" font-size="14.00">Person</text>
</g>
<!-- Person&#45;&gt;AnnotationDescription -->
<g id="edge7" class="edge"><title>Person&#45;&gt;AnnotationDescription</title>
<path fill="none" stroke="black" d="M660.13,-247.193C635.214,-257.575 598.917,-272.699 569.698,-284.873"/>
<polygon fill="black" stroke="black" points="567.972,-281.8 560.087,-288.877 570.664,-288.262 567.972,-281.8"/>
</g>
<!-- Contributor -->
<g id="node9" class="node"><title>Contributor</title>
<ellipse fill="none" stroke="#005a9c" stroke-width="2" cx="683.393" cy="-162" rx="69.5877" ry="18"/>
<text text-anchor="middle" x="683.393" y="-158.3" font-family="DejaVu Sans Mono bold" font-size="14.00">Contributor</text>
</g>
<!-- Contributor&#45;&gt;Person -->
<g id="edge8" class="edge"><title>Contributor&#45;&gt;Person</title>
<path fill="none" stroke="black" d="M684.876,-180.303C685.538,-188.017 686.332,-197.288 687.069,-205.888"/>
<polygon fill="black" stroke="black" points="683.586,-206.231 687.927,-215.896 690.56,-205.633 683.586,-206.231"/>
</g>
<!-- Creator -->
<g id="node10" class="node"><title>Creator</title>
<ellipse fill="none" stroke="#005a9c" stroke-width="2" cx="683.393" cy="-90" rx="48.1917" ry="18"/>
<text text-anchor="middle" x="683.393" y="-86.3" font-family="DejaVu Sans Mono bold" font-size="14.00">Creator</text>
</g>
<!-- Creator&#45;&gt;Contributor -->
<g id="edge9" class="edge"><title>Creator&#45;&gt;Contributor</title>
<path fill="none" stroke="black" d="M683.393,-108.303C683.393,-116.017 683.393,-125.288 683.393,-133.888"/>
<polygon fill="black" stroke="black" points="679.893,-133.896 683.393,-143.896 686.893,-133.896 679.893,-133.896"/>
</g>
<!-- Attribution -->
<g id="node11" class="node"><title>Attribution</title>
<ellipse fill="none" stroke="#005a9c" stroke-width="2" cx="521.393" cy="-162" rx="69.5877" ry="18"/>
<text text-anchor="middle" x="521.393" y="-158.3" font-family="DejaVu Sans Mono bold" font-size="14.00">Attribution</text>
</g>
<!-- Attribution&#45;&gt;TextualDescription -->
<g id="edge10" class="edge"><title>Attribution&#45;&gt;TextualDescription</title>
<path fill="none" stroke="black" d="M521.393,-180.303C521.393,-188.017 521.393,-197.288 521.393,-205.888"/>
<polygon fill="black" stroke="black" points="517.893,-205.896 521.393,-215.896 524.893,-205.896 517.893,-205.896"/>
</g>
<!-- DocumentLayout -->
<g id="node12" class="node"><title>DocumentLayout</title>
<ellipse fill="none" stroke="#005a9c" stroke-width="2" cx="1544.39" cy="-306" rx="85.5853" ry="18"/>
<text text-anchor="middle" x="1544.39" y="-302.3" font-family="DejaVu Sans Mono bold" font-size="14.00">DocumentLayout</text>
</g>
<!-- DocumentLayout&#45;&gt;top -->
<g id="edge11" class="edge"><title>DocumentLayout&#45;&gt;top</title>
<path fill="none" stroke="black" d="M1544.39,-324.303C1544.39,-332.017 1544.39,-341.288 1544.39,-349.888"/>
<polygon fill="black" stroke="black" points="1540.89,-349.896 1544.39,-359.896 1547.89,-349.896 1540.89,-349.896"/>
</g>
<!-- FormatRelatedChange -->
<g id="node13" class="node"><title>FormatRelatedChange</title>
<ellipse fill="none" stroke="#005a9c" stroke-width="2" cx="1290.39" cy="-234" rx="112.38" ry="18"/>
<text text-anchor="middle" x="1290.39" y="-230.3" font-family="DejaVu Sans Mono bold" font-size="14.00">FormatRelatedChange</text>
</g>
<!-- FormatRelatedChange&#45;&gt;DocumentLayout -->
<g id="edge12" class="edge"><title>FormatRelatedChange&#45;&gt;DocumentLayout</title>
<path fill="none" stroke="black" d="M1344.26,-249.845C1385.47,-261.201 1442.25,-276.851 1484.81,-288.58"/>
<polygon fill="black" stroke="black" points="1483.92,-291.963 1494.49,-291.246 1485.78,-285.215 1483.92,-291.963"/>
</g>
<!-- PermutationOfEntities -->
<g id="node14" class="node"><title>PermutationOfEntities</title>
<ellipse fill="none" stroke="#005a9c" stroke-width="2" cx="1544.39" cy="-234" rx="123.478" ry="18"/>
<text text-anchor="middle" x="1544.39" y="-230.3" font-family="DejaVu Sans Mono bold" font-size="14.00">PermutationOfEntities</text>
</g>
<!-- PermutationOfEntities&#45;&gt;DocumentLayout -->
<g id="edge13" class="edge"><title>PermutationOfEntities&#45;&gt;DocumentLayout</title>
<path fill="none" stroke="black" d="M1544.39,-252.303C1544.39,-260.017 1544.39,-269.288 1544.39,-277.888"/>
<polygon fill="black" stroke="black" points="1540.89,-277.896 1544.39,-287.896 1547.89,-277.896 1540.89,-277.896"/>
</g>
<!-- ShiftingOfEntities -->
<g id="node15" class="node"><title>ShiftingOfEntities</title>
<ellipse fill="none" stroke="#005a9c" stroke-width="2" cx="1793.39" cy="-234" rx="107.482" ry="18"/>
<text text-anchor="middle" x="1793.39" y="-230.3" font-family="DejaVu Sans Mono bold" font-size="14.00">ShiftingOfEntities</text>
</g>
<!-- ShiftingOfEntities&#45;&gt;DocumentLayout -->
<g id="edge14" class="edge"><title>ShiftingOfEntities&#45;&gt;DocumentLayout</title>
<path fill="none" stroke="black" d="M1740.89,-249.76C1700.6,-261.086 1644.99,-276.72 1603.21,-288.466"/>
<polygon fill="black" stroke="black" points="1602.12,-285.136 1593.44,-291.212 1604.01,-291.875 1602.12,-285.136"/>
</g>
<!-- AnnotationScheme -->
<g id="node16" class="node"><title>AnnotationScheme</title>
<ellipse fill="none" stroke="#005a9c" stroke-width="2" cx="867.393" cy="-162" rx="96.6831" ry="18"/>
<text text-anchor="middle" x="867.393" y="-158.3" font-family="DejaVu Sans Mono bold" font-size="14.00">AnnotationScheme</text>
</g>
<!-- AnnotationScheme&#45;&gt;FormatRelatedChange -->
<g id="edge15" class="edge"><title>AnnotationScheme&#45;&gt;FormatRelatedChange</title>
<path fill="none" stroke="black" d="M937.243,-174.559C1010.72,-186.718 1126.4,-205.861 1205.18,-218.899"/>
<polygon fill="black" stroke="black" points="1204.65,-222.358 1215.09,-220.538 1205.79,-215.452 1204.65,-222.358"/>
</g>
<!-- IdentifiersScheme -->
<g id="node17" class="node"><title>IdentifiersScheme</title>
<ellipse fill="none" stroke="#005a9c" stroke-width="2" cx="1084.39" cy="-162" rx="102.082" ry="18"/>
<text text-anchor="middle" x="1084.39" y="-158.3" font-family="DejaVu Sans Mono bold" font-size="14.00">IdentifiersScheme</text>
</g>
<!-- IdentifiersScheme&#45;&gt;FormatRelatedChange -->
<g id="edge16" class="edge"><title>IdentifiersScheme&#45;&gt;FormatRelatedChange</title>
<path fill="none" stroke="black" d="M1129.09,-178.189C1160.22,-188.766 1201.93,-202.941 1235.15,-214.226"/>
<polygon fill="black" stroke="black" points="1234.12,-217.574 1244.71,-217.478 1236.37,-210.946 1234.12,-217.574"/>
</g>
<!-- MetaIdentifier -->
<g id="node18" class="node"><title>MetaIdentifier</title>
<ellipse fill="none" stroke="#005a9c" stroke-width="2" cx="1290.39" cy="-162" rx="85.5853" ry="18"/>
<text text-anchor="middle" x="1290.39" y="-158.3" font-family="DejaVu Sans Mono bold" font-size="14.00">MetaIdentifier</text>
</g>
<!-- MetaIdentifier&#45;&gt;FormatRelatedChange -->
<g id="edge17" class="edge"><title>MetaIdentifier&#45;&gt;FormatRelatedChange</title>
<path fill="none" stroke="black" d="M1290.39,-180.303C1290.39,-188.017 1290.39,-197.288 1290.39,-205.888"/>
<polygon fill="black" stroke="black" points="1286.89,-205.896 1290.39,-215.896 1293.89,-205.896 1286.89,-205.896"/>
</g>
<!-- Specification -->
<g id="node19" class="node"><title>Specification</title>
<ellipse fill="none" stroke="#005a9c" stroke-width="2" cx="1474.39" cy="-162" rx="80.6858" ry="18"/>
<text text-anchor="middle" x="1474.39" y="-158.3" font-family="DejaVu Sans Mono bold" font-size="14.00">Specification</text>
</g>
<!-- Specification&#45;&gt;FormatRelatedChange -->
<g id="edge18" class="edge"><title>Specification&#45;&gt;FormatRelatedChange</title>
<path fill="none" stroke="black" d="M1435.37,-177.845C1407.96,-188.275 1371.02,-202.326 1341.29,-213.636"/>
<polygon fill="black" stroke="black" points="1340.02,-210.376 1331.92,-217.203 1342.51,-216.919 1340.02,-210.376"/>
</g>
<!-- CellMLSpecification -->
<g id="node20" class="node"><title>CellMLSpecification</title>
<ellipse fill="none" stroke="#005a9c" stroke-width="2" cx="1358.39" cy="-90" rx="112.38" ry="18"/>
<text text-anchor="middle" x="1358.39" y="-86.3" font-family="DejaVu Sans Mono bold" font-size="14.00">CellMLSpecification</text>
</g>
<!-- CellMLSpecification&#45;&gt;Specification -->
<g id="edge19" class="edge"><title>CellMLSpecification&#45;&gt;Specification</title>
<path fill="none" stroke="black" d="M1385.88,-107.589C1401.74,-117.16 1421.86,-129.299 1438.91,-139.585"/>
<polygon fill="black" stroke="black" points="1437.13,-142.601 1447.5,-144.772 1440.75,-136.608 1437.13,-142.601"/>
</g>
<!-- SbmlSpecification -->
<g id="node21" class="node"><title>SbmlSpecification</title>
<ellipse fill="none" stroke="#005a9c" stroke-width="2" cx="1590.39" cy="-90" rx="102.082" ry="18"/>
<text text-anchor="middle" x="1590.39" y="-86.3" font-family="DejaVu Sans Mono bold" font-size="14.00">SbmlSpecification</text>
</g>
<!-- SbmlSpecification&#45;&gt;Specification -->
<g id="edge20" class="edge"><title>SbmlSpecification&#45;&gt;Specification</title>
<path fill="none" stroke="black" d="M1563.2,-107.412C1547.23,-117.047 1526.87,-129.33 1509.68,-139.705"/>
<polygon fill="black" stroke="black" points="1507.77,-136.769 1501.02,-144.932 1511.39,-142.762 1507.77,-136.769"/>
</g>
<!-- SbmlLevel -->
<g id="node22" class="node"><title>SbmlLevel</title>
<ellipse fill="none" stroke="#005a9c" stroke-width="2" cx="1517.39" cy="-18" rx="59.2899" ry="18"/>
<text text-anchor="middle" x="1517.39" y="-14.3" font-family="DejaVu Sans Mono bold" font-size="14.00">SbmlLevel</text>
</g>
<!-- SbmlLevel&#45;&gt;SbmlSpecification -->
<g id="edge21" class="edge"><title>SbmlLevel&#45;&gt;SbmlSpecification</title>
<path fill="none" stroke="black" d="M1534.69,-35.589C1543.83,-44.3521 1555.22,-55.2678 1565.31,-64.9431"/>
<polygon fill="black" stroke="black" points="1563.07,-67.6488 1572.71,-72.0438 1567.91,-62.5963 1563.07,-67.6488"/>
</g>
<!-- SbmlVersion -->
<g id="node23" class="node"><title>SbmlVersion</title>
<ellipse fill="none" stroke="#005a9c" stroke-width="2" cx="1664.39" cy="-18" rx="69.5877" ry="18"/>
<text text-anchor="middle" x="1664.39" y="-14.3" font-family="DejaVu Sans Mono bold" font-size="14.00">SbmlVersion</text>
</g>
<!-- SbmlVersion&#45;&gt;SbmlSpecification -->
<g id="edge22" class="edge"><title>SbmlVersion&#45;&gt;SbmlSpecification</title>
<path fill="none" stroke="black" d="M1646.86,-35.589C1637.59,-44.3521 1626.05,-55.2678 1615.82,-64.9431"/>
<polygon fill="black" stroke="black" points="1613.18,-62.6291 1608.32,-72.0438 1617.99,-67.7144 1613.18,-62.6291"/>
</g>
<!-- VcardScheme -->
<g id="node24" class="node"><title>VcardScheme</title>
<ellipse fill="none" stroke="#005a9c" stroke-width="2" cx="1642.39" cy="-162" rx="69.5877" ry="18"/>
<text text-anchor="middle" x="1642.39" y="-158.3" font-family="DejaVu Sans Mono bold" font-size="14.00">VcardScheme</text>
</g>
<!-- VcardScheme&#45;&gt;FormatRelatedChange -->
<g id="edge23" class="edge"><title>VcardScheme&#45;&gt;FormatRelatedChange</title>
<path fill="none" stroke="black" d="M1591.24,-174.328C1582.3,-176.257 1573.08,-178.213 1564.39,-180 1499.28,-193.392 1425.25,-207.654 1370.57,-218.006"/>
<polygon fill="black" stroke="black" points="1369.77,-214.595 1360.59,-219.892 1371.07,-221.474 1369.77,-214.595"/>
</g>
<!-- EncodedSystem -->
<g id="node25" class="node"><title>EncodedSystem</title>
<ellipse fill="none" stroke="#005a9c" stroke-width="2" cx="2642.39" cy="-306" rx="80.6858" ry="18"/>
<text text-anchor="middle" x="2642.39" y="-302.3" font-family="DejaVu Sans Mono bold" font-size="14.00">EncodedSystem</text>
</g>
<!-- EncodedSystem&#45;&gt;top -->
<g id="edge24" class="edge"><title>EncodedSystem&#45;&gt;top</title>
<path fill="none" stroke="black" d="M2566.06,-311.867C2356.25,-325.242 1774.67,-362.32 1596.77,-373.661"/>
<polygon fill="black" stroke="black" points="1596.38,-370.178 1586.63,-374.307 1596.83,-377.164 1596.38,-370.178"/>
</g>
<!-- MathematicalModel -->
<g id="node26" class="node"><title>MathematicalModel</title>
<ellipse fill="none" stroke="#005a9c" stroke-width="2" cx="2642.39" cy="-234" rx="102.082" ry="18"/>
<text text-anchor="middle" x="2642.39" y="-230.3" font-family="DejaVu Sans Mono bold" font-size="14.00">MathematicalModel</text>
</g>
<!-- MathematicalModel&#45;&gt;EncodedSystem -->
<g id="edge25" class="edge"><title>MathematicalModel&#45;&gt;EncodedSystem</title>
<path fill="none" stroke="black" d="M2642.39,-252.303C2642.39,-260.017 2642.39,-269.288 2642.39,-277.888"/>
<polygon fill="black" stroke="black" points="2638.89,-277.896 2642.39,-287.896 2645.89,-277.896 2638.89,-277.896"/>
</g>
<!-- Network -->
<g id="node27" class="node"><title>Network</title>
<ellipse fill="none" stroke="#005a9c" stroke-width="2" cx="3725.39" cy="-234" rx="48.1917" ry="18"/>
<text text-anchor="middle" x="3725.39" y="-230.3" font-family="DejaVu Sans Mono bold" font-size="14.00">Network</text>
</g>
<!-- Network&#45;&gt;EncodedSystem -->
<g id="edge26" class="edge"><title>Network&#45;&gt;EncodedSystem</title>
<path fill="none" stroke="black" d="M3678.51,-238.03C3511.86,-248.802 2946.44,-285.348 2728.78,-299.416"/>
<polygon fill="black" stroke="black" points="2728.44,-295.931 2718.68,-300.069 2728.89,-302.917 2728.44,-295.931"/>
</g>
<!-- ComponentDefinition -->
<g id="node28" class="node"><title>ComponentDefinition</title>
<ellipse fill="none" stroke="#005a9c" stroke-width="2" cx="1842.39" cy="-162" rx="112.38" ry="18"/>
<text text-anchor="middle" x="1842.39" y="-158.3" font-family="DejaVu Sans Mono bold" font-size="14.00">ComponentDefinition</text>
</g>
<!-- ComponentDefinition&#45;&gt;MathematicalModel -->
<g id="edge27" class="edge"><title>ComponentDefinition&#45;&gt;MathematicalModel</title>
<path fill="none" stroke="black" d="M1921.39,-174.814C1935.36,-176.699 1949.79,-178.515 1963.39,-180 2165.87,-202.105 2403.3,-218.459 2536.97,-226.793"/>
<polygon fill="black" stroke="black" points="2537,-230.302 2547.2,-227.428 2537.43,-223.315 2537,-230.302"/>
</g>
<!-- EventDefinition -->
<g id="node29" class="node"><title>EventDefinition</title>
<ellipse fill="none" stroke="#005a9c" stroke-width="2" cx="2063.39" cy="-162" rx="90.9839" ry="18"/>
<text text-anchor="middle" x="2063.39" y="-158.3" font-family="DejaVu Sans Mono bold" font-size="14.00">EventDefinition</text>
</g>
<!-- EventDefinition&#45;&gt;MathematicalModel -->
<g id="edge28" class="edge"><title>EventDefinition&#45;&gt;MathematicalModel</title>
<path fill="none" stroke="black" d="M2128.4,-174.615C2140.03,-176.533 2152.06,-178.411 2163.39,-180 2294.83,-198.428 2447.31,-214.369 2544.27,-223.829"/>
<polygon fill="black" stroke="black" points="2544.07,-227.325 2554.36,-224.809 2544.74,-220.358 2544.07,-227.325"/>
</g>
<!-- FunctionDefinition -->
<g id="node30" class="node"><title>FunctionDefinition</title>
<ellipse fill="none" stroke="#005a9c" stroke-width="2" cx="2279.39" cy="-162" rx="107.482" ry="18"/>
<text text-anchor="middle" x="2279.39" y="-158.3" font-family="DejaVu Sans Mono bold" font-size="14.00">FunctionDefinition</text>
</g>
<!-- FunctionDefinition&#45;&gt;MathematicalModel -->
<g id="edge29" class="edge"><title>FunctionDefinition&#45;&gt;MathematicalModel</title>
<path fill="none" stroke="black" d="M2346.82,-176.002C2409,-187.993 2501.22,-205.777 2566.08,-218.284"/>
<polygon fill="black" stroke="black" points="2565.76,-221.787 2576.25,-220.244 2567.09,-214.914 2565.76,-221.787"/>
</g>
<!-- Kinetics -->
<g id="node31" class="node"><title>Kinetics</title>
<ellipse fill="none" stroke="#005a9c" stroke-width="2" cx="2458.39" cy="-162" rx="53.8905" ry="18"/>
<text text-anchor="middle" x="2458.39" y="-158.3" font-family="DejaVu Sans Mono bold" font-size="14.00">Kinetics</text>
</g>
<!-- Kinetics&#45;&gt;MathematicalModel -->
<g id="edge30" class="edge"><title>Kinetics&#45;&gt;MathematicalModel</title>
<path fill="none" stroke="black" d="M2492.57,-176.002C2520.45,-186.608 2560.24,-201.747 2591.81,-213.757"/>
<polygon fill="black" stroke="black" points="2590.73,-217.091 2601.32,-217.375 2593.22,-210.548 2590.73,-217.091"/>
</g>
<!-- ParameterDefinition -->
<g id="node32" class="node"><title>ParameterDefinition</title>
<ellipse fill="none" stroke="#005a9c" stroke-width="2" cx="2642.39" cy="-162" rx="112.38" ry="18"/>
<text text-anchor="middle" x="2642.39" y="-158.3" font-family="DejaVu Sans Mono bold" font-size="14.00">ParameterDefinition</text>
</g>
<!-- ParameterDefinition&#45;&gt;MathematicalModel -->
<g id="edge31" class="edge"><title>ParameterDefinition&#45;&gt;MathematicalModel</title>
<path fill="none" stroke="black" d="M2642.39,-180.303C2642.39,-188.017 2642.39,-197.288 2642.39,-205.888"/>
<polygon fill="black" stroke="black" points="2638.89,-205.896 2642.39,-215.896 2645.89,-205.896 2638.89,-205.896"/>
</g>
<!-- Rules -->
<g id="node33" class="node"><title>Rules</title>
<ellipse fill="none" stroke="#005a9c" stroke-width="2" cx="2810.39" cy="-162" rx="37.8943" ry="18"/>
<text text-anchor="middle" x="2810.39" y="-158.3" font-family="DejaVu Sans Mono bold" font-size="14.00">Rules</text>
</g>
<!-- Rules&#45;&gt;MathematicalModel -->
<g id="edge32" class="edge"><title>Rules&#45;&gt;MathematicalModel</title>
<path fill="none" stroke="black" d="M2783.03,-174.403C2757.86,-184.89 2719.99,-200.668 2689.89,-213.211"/>
<polygon fill="black" stroke="black" points="2688.3,-210.081 2680.41,-217.158 2690.99,-216.543 2688.3,-210.081"/>
</g>
<!-- SpeciesDefinition -->
<g id="node34" class="node"><title>SpeciesDefinition</title>
<ellipse fill="none" stroke="#005a9c" stroke-width="2" cx="2968.39" cy="-162" rx="102.082" ry="18"/>
<text text-anchor="middle" x="2968.39" y="-158.3" font-family="DejaVu Sans Mono bold" font-size="14.00">SpeciesDefinition</text>
</g>
<!-- SpeciesDefinition&#45;&gt;MathematicalModel -->
<g id="edge33" class="edge"><title>SpeciesDefinition&#45;&gt;MathematicalModel</title>
<path fill="none" stroke="black" d="M2906.31,-176.331C2851.67,-188.063 2772.1,-205.149 2714.63,-217.49"/>
<polygon fill="black" stroke="black" points="2713.57,-214.137 2704.52,-219.659 2715.04,-220.981 2713.57,-214.137"/>
</g>
<!-- UnitDefinition -->
<g id="node35" class="node"><title>UnitDefinition</title>
<ellipse fill="none" stroke="#005a9c" stroke-width="2" cx="3174.39" cy="-162" rx="85.5853" ry="18"/>
<text text-anchor="middle" x="3174.39" y="-158.3" font-family="DejaVu Sans Mono bold" font-size="14.00">UnitDefinition</text>
</g>
<!-- UnitDefinition&#45;&gt;MathematicalModel -->
<g id="edge34" class="edge"><title>UnitDefinition&#45;&gt;MathematicalModel</title>
<path fill="none" stroke="black" d="M3112.64,-174.571C3101.59,-176.493 3090.16,-178.385 3079.39,-180 2962.23,-197.574 2826.71,-213.299 2738.04,-222.97"/>
<polygon fill="black" stroke="black" points="2737.56,-219.501 2728,-224.061 2738.32,-226.46 2737.56,-219.501"/>
</g>
<!-- VariableDefinition -->
<g id="node36" class="node"><title>VariableDefinition</title>
<ellipse fill="none" stroke="#005a9c" stroke-width="2" cx="3385.39" cy="-162" rx="107.482" ry="18"/>
<text text-anchor="middle" x="3385.39" y="-158.3" font-family="DejaVu Sans Mono bold" font-size="14.00">VariableDefinition</text>
</g>
<!-- VariableDefinition&#45;&gt;MathematicalModel -->
<g id="edge35" class="edge"><title>VariableDefinition&#45;&gt;MathematicalModel</title>
<path fill="none" stroke="black" d="M3309.67,-174.779C3296.27,-176.669 3282.44,-178.495 3269.39,-180 3085.86,-201.185 2871.18,-217.51 2746.61,-226.151"/>
<polygon fill="black" stroke="black" points="2746.05,-222.68 2736.32,-226.861 2746.53,-229.664 2746.05,-222.68"/>
</g>
<!-- ComponentHierarchy -->
<g id="node37" class="node"><title>ComponentHierarchy</title>
<ellipse fill="none" stroke="#005a9c" stroke-width="2" cx="3617.39" cy="-162" rx="107.482" ry="18"/>
<text text-anchor="middle" x="3617.39" y="-158.3" font-family="DejaVu Sans Mono bold" font-size="14.00">ComponentHierarchy</text>
</g>
<!-- ComponentHierarchy&#45;&gt;Network -->
<g id="edge36" class="edge"><title>ComponentHierarchy&#45;&gt;Network</title>
<path fill="none" stroke="black" d="M3642.99,-179.589C3658.15,-189.413 3677.48,-201.943 3693.61,-212.398"/>
<polygon fill="black" stroke="black" points="3691.9,-215.46 3702.19,-217.962 3695.7,-209.586 3691.9,-215.46"/>
</g>
<!-- ReactionNetwork -->
<g id="node38" class="node"><title>ReactionNetwork</title>
<ellipse fill="none" stroke="#005a9c" stroke-width="2" cx="3833.39" cy="-162" rx="90.9839" ry="18"/>
<text text-anchor="middle" x="3833.39" y="-158.3" font-family="DejaVu Sans Mono bold" font-size="14.00">ReactionNetwork</text>
</g>
<!-- ReactionNetwork&#45;&gt;Network -->
<g id="edge37" class="edge"><title>ReactionNetwork&#45;&gt;Network</title>
<path fill="none" stroke="black" d="M3808.07,-179.412C3792.82,-189.3 3773.26,-201.976 3757,-212.517"/>
<polygon fill="black" stroke="black" points="3754.84,-209.746 3748.35,-218.122 3758.64,-215.62 3754.84,-209.746"/>
</g>
<!-- VariableConnections -->
<g id="node39" class="node"><title>VariableConnections</title>
<ellipse fill="none" stroke="#005a9c" stroke-width="2" cx="4054.39" cy="-162" rx="112.38" ry="18"/>
<text text-anchor="middle" x="4054.39" y="-158.3" font-family="DejaVu Sans Mono bold" font-size="14.00">VariableConnections</text>
</g>
<!-- VariableConnections&#45;&gt;Network -->
<g id="edge38" class="edge"><title>VariableConnections&#45;&gt;Network</title>
<path fill="none" stroke="black" d="M3989.79,-176.746C3927.29,-190.043 3833.84,-209.926 3776.4,-222.147"/>
<polygon fill="black" stroke="black" points="3775.51,-218.757 3766.46,-224.262 3776.97,-225.604 3775.51,-218.757"/>
</g>
<!-- ReactionDefinition -->
<g id="node40" class="node"><title>ReactionDefinition</title>
<ellipse fill="none" stroke="#005a9c" stroke-width="2" cx="3833.39" cy="-90" rx="107.482" ry="18"/>
<text text-anchor="middle" x="3833.39" y="-86.3" font-family="DejaVu Sans Mono bold" font-size="14.00">ReactionDefinition</text>
</g>
<!-- ReactionDefinition&#45;&gt;ReactionNetwork -->
<g id="edge39" class="edge"><title>ReactionDefinition&#45;&gt;ReactionNetwork</title>
<path fill="none" stroke="black" d="M3833.39,-108.303C3833.39,-116.017 3833.39,-125.288 3833.39,-133.888"/>
<polygon fill="black" stroke="black" points="3829.89,-133.896 3833.39,-143.896 3836.89,-133.896 3829.89,-133.896"/>
</g>
</g>
</svg>
