<?xml version="1.0" encoding="UTF-8" standalone="no"?>
<!DOCTYPE svg PUBLIC "-//W3C//DTD SVG 1.1//EN"
 "http://www.w3.org/Graphics/SVG/1.1/DTD/svg11.dtd">
<!-- Generated by graphviz version 2.38.0 (20140413.2041)
 -->
<!-- Title: intro Pages: 1 -->
<svg width="575pt" height="188pt"
 viewBox="0.00 0.00 575.09 188.00" xmlns="http://www.w3.org/2000/svg" xmlns:xlink="http://www.w3.org/1999/xlink">
<g id="graph0" class="graph" transform="scale(1 1) rotate(0) translate(4 184)">
<title>intro</title>
<polygon fill="white" stroke="none" points="-4,4 -4,-184 571.09,-184 571.09,4 -4,4"/>
<!-- top -->
<g id="node1" class="node"><title>top</title>
<ellipse fill="#005a9c" stroke="#000000" stroke-width="2" cx="261.945" cy="-18" rx="32.4942" ry="18"/>
<text text-anchor="middle" x="261.945" y="-14.3" font-family="DejaVu Sans Mono bold" font-size="14.00" fill="#ffffff">Type</text>
</g>
<!-- Deletion -->
<g id="node2" class="node"><title>Deletion</title>
<ellipse fill="none" stroke="#005a9c" stroke-width="2" cx="53.9452" cy="-90" rx="53.8905" ry="18"/>
<text text-anchor="middle" x="53.9452" y="-86.3" font-family="DejaVu Sans Mono bold" font-size="14.00">Deletion</text>
</g>
<!-- Deletion&#45;&gt;top -->
<g id="edge1" class="edge"><title>Deletion&#45;&gt;top</title>
<path fill="none" stroke="black" d="M90.6526,-76.6465C128.552,-63.8921 187.344,-44.1061 225.242,-31.3521"/>
<polygon fill="black" stroke="black" points="226.51,-34.6183 234.871,-28.1114 224.277,-27.9839 226.51,-34.6183"/>
</g>
<!-- AttributeValue -->
<g id="node3" class="node"><title>AttributeValue</title>
<ellipse fill="none" stroke="#005a9c" stroke-width="2" cx="101.945" cy="-162" rx="85.5853" ry="18"/>
<text text-anchor="middle" x="101.945" y="-158.3" font-family="DejaVu Sans Mono bold" font-size="14.00">AttributeValue</text>
</g>
<!-- Update -->
<g id="node4" class="node"><title>Update</title>
<ellipse fill="none" stroke="#005a9c" stroke-width="2" cx="168.945" cy="-90" rx="42.7926" ry="18"/>
<text text-anchor="middle" x="168.945" y="-86.3" font-family="DejaVu Sans Mono bold" font-size="14.00">Update</text>
</g>
<!-- AttributeValue&#45;&gt;Update -->
<g id="edge2" class="edge"><title>AttributeValue&#45;&gt;Update</title>
<path fill="none" stroke="black" d="M118.164,-144.055C126.598,-135.243 137.045,-124.328 146.266,-114.694"/>
<polygon fill="black" stroke="black" points="148.951,-116.951 153.337,-107.307 143.894,-112.111 148.951,-116.951"/>
</g>
<!-- Update&#45;&gt;top -->
<g id="edge3" class="edge"><title>Update&#45;&gt;top</title>
<path fill="none" stroke="black" d="M189.125,-73.811C202.611,-63.6599 220.502,-50.1935 235.176,-39.1492"/>
<polygon fill="black" stroke="black" points="237.501,-41.7799 243.385,-32.9698 233.291,-36.1871 237.501,-41.7799"/>
</g>
<!-- PermutationOfEntities -->
<g id="node5" class="node"><title>PermutationOfEntities</title>
<ellipse fill="none" stroke="#005a9c" stroke-width="2" cx="328.945" cy="-162" rx="123.478" ry="18"/>
<text text-anchor="middle" x="328.945" y="-158.3" font-family="DejaVu Sans Mono bold" font-size="14.00">PermutationOfEntities</text>
</g>
<!-- Move -->
<g id="node6" class="node"><title>Move</title>
<ellipse fill="none" stroke="#005a9c" stroke-width="2" cx="261.945" cy="-90" rx="32.4942" ry="18"/>
<text text-anchor="middle" x="261.945" y="-86.3" font-family="DejaVu Sans Mono bold" font-size="14.00">Move</text>
</g>
<!-- PermutationOfEntities&#45;&gt;Move -->
<g id="edge4" class="edge"><title>PermutationOfEntities&#45;&gt;Move</title>
<path fill="none" stroke="black" d="M312.726,-144.055C304.048,-134.988 293.238,-123.694 283.825,-113.86"/>
<polygon fill="black" stroke="black" points="286.087,-111.16 276.643,-106.356 281.03,-116.001 286.087,-111.16"/>
</g>
<!-- Move&#45;&gt;top -->
<g id="edge5" class="edge"><title>Move&#45;&gt;top</title>
<path fill="none" stroke="black" d="M261.945,-71.6966C261.945,-63.9827 261.945,-54.7125 261.945,-46.1124"/>
<polygon fill="black" stroke="black" points="265.445,-46.1043 261.945,-36.1043 258.445,-46.1044 265.445,-46.1043"/>
</g>
<!-- Insertion -->
<g id="node7" class="node"><title>Insertion</title>
<ellipse fill="none" stroke="#005a9c" stroke-width="2" cx="371.945" cy="-90" rx="59.2899" ry="18"/>
<text text-anchor="middle" x="371.945" y="-86.3" font-family="DejaVu Sans Mono bold" font-size="14.00">Insertion</text>
</g>
<!-- Insertion&#45;&gt;top -->
<g id="edge6" class="edge"><title>Insertion&#45;&gt;top</title>
<path fill="none" stroke="black" d="M347.533,-73.4647C330.932,-62.9004 308.879,-48.8671 291.317,-37.6911"/>
<polygon fill="black" stroke="black" points="292.911,-34.5568 282.595,-32.1408 289.153,-40.4624 292.911,-34.5568"/>
</g>
<!-- Triggered -->
<g id="node8" class="node"><title>Triggered</title>
<ellipse fill="none" stroke="#005a9c" stroke-width="2" cx="507.945" cy="-90" rx="59.2899" ry="18"/>
<text text-anchor="middle" x="507.945" y="-86.3" font-family="DejaVu Sans Mono bold" font-size="14.00">Triggered</text>
</g>
<!-- Triggered&#45;&gt;top -->
<g id="edge7" class="edge"><title>Triggered&#45;&gt;top</title>
<path fill="none" stroke="black" d="M466.215,-77.1255C419.699,-63.8892 345.114,-42.6659 300.099,-29.8568"/>
<polygon fill="black" stroke="black" points="300.994,-26.4726 290.418,-27.102 299.078,-33.2053 300.994,-26.4726"/>
</g>
</g>
</svg>
