<?xml version="1.0" encoding="UTF-8" standalone="no"?>
<!DOCTYPE svg PUBLIC "-//W3C//DTD SVG 1.1//EN"
 "http://www.w3.org/Graphics/SVG/1.1/DTD/svg11.dtd">
<!-- Generated by graphviz version 2.38.0 (20140413.2041)
 -->
<!-- Title: intro Pages: 1 -->
<svg width="439pt" height="188pt"
 viewBox="0.00 0.00 439.09 188.00" xmlns="http://www.w3.org/2000/svg" xmlns:xlink="http://www.w3.org/1999/xlink">
<g id="graph0" class="graph" transform="scale(1 1) rotate(0) translate(4 184)">
<title>intro</title>
<polygon fill="white" stroke="none" points="-4,4 -4,-184 435.09,-184 435.09,4 -4,4"/>
<!-- top -->
<g id="node1" class="node"><title>top</title>
<ellipse fill="#005a9c" stroke="#000000" stroke-width="2" cx="214.945" cy="-162" rx="32.4942" ry="18"/>
<text text-anchor="middle" x="214.945" y="-158.3" font-family="DejaVu Sans Mono bold" font-size="14.00" fill="#ffffff">Type</text>
</g>
<!-- Deletion -->
<g id="node2" class="node"><title>Deletion</title>
<ellipse fill="none" stroke="#005a9c" stroke-width="2" cx="53.9452" cy="-90" rx="53.8905" ry="18"/>
<text text-anchor="middle" x="53.9452" y="-86.3" font-family="DejaVu Sans Mono bold" font-size="14.00">Deletion</text>
</g>
<!-- Deletion&#45;&gt;top -->
<g id="edge1" class="edge"><title>Deletion&#45;&gt;top</title>
<path fill="none" stroke="black" d="M85.3698,-104.663C112.793,-116.586 152.503,-133.851 180.723,-146.121"/>
<polygon fill="black" stroke="black" points="179.62,-149.458 190.186,-150.235 182.411,-143.038 179.62,-149.458"/>
</g>
<!-- AttributeValue -->
<g id="node3" class="node"><title>AttributeValue</title>
<ellipse fill="none" stroke="#005a9c" stroke-width="2" cx="168.945" cy="-18" rx="85.5853" ry="18"/>
<text text-anchor="middle" x="168.945" y="-14.3" font-family="DejaVu Sans Mono bold" font-size="14.00">AttributeValue</text>
</g>
<!-- Update -->
<g id="node4" class="node"><title>Update</title>
<ellipse fill="none" stroke="#005a9c" stroke-width="2" cx="168.945" cy="-90" rx="42.7926" ry="18"/>
<text text-anchor="middle" x="168.945" y="-86.3" font-family="DejaVu Sans Mono bold" font-size="14.00">Update</text>
</g>
<!-- AttributeValue&#45;&gt;Update -->
<g id="edge2" class="edge"><title>AttributeValue&#45;&gt;Update</title>
<path fill="none" stroke="black" d="M168.945,-36.3034C168.945,-44.0173 168.945,-53.2875 168.945,-61.8876"/>
<polygon fill="black" stroke="black" points="165.445,-61.8956 168.945,-71.8957 172.445,-61.8957 165.445,-61.8956"/>
</g>
<!-- Update&#45;&gt;top -->
<g id="edge3" class="edge"><title>Update&#45;&gt;top</title>
<path fill="none" stroke="black" d="M179.847,-107.589C185.403,-116.045 192.277,-126.506 198.465,-135.922"/>
<polygon fill="black" stroke="black" points="195.705,-138.095 204.122,-144.53 201.555,-134.251 195.705,-138.095"/>
</g>
<!-- Move -->
<g id="node5" class="node"><title>Move</title>
<ellipse fill="none" stroke="#005a9c" stroke-width="2" cx="261.945" cy="-90" rx="32.4942" ry="18"/>
<text text-anchor="middle" x="261.945" y="-86.3" font-family="DejaVu Sans Mono bold" font-size="14.00">Move</text>
</g>
<!-- Move&#45;&gt;top -->
<g id="edge4" class="edge"><title>Move&#45;&gt;top</title>
<path fill="none" stroke="black" d="M251.044,-107.235C245.231,-115.894 237.957,-126.727 231.465,-136.396"/>
<polygon fill="black" stroke="black" points="228.456,-134.599 225.787,-144.853 234.267,-138.501 228.456,-134.599"/>
</g>
<!-- Insertion -->
<g id="node6" class="node"><title>Insertion</title>
<ellipse fill="none" stroke="#005a9c" stroke-width="2" cx="371.945" cy="-90" rx="59.2899" ry="18"/>
<text text-anchor="middle" x="371.945" y="-86.3" font-family="DejaVu Sans Mono bold" font-size="14.00">Insertion</text>
</g>
<!-- Insertion&#45;&gt;top -->
<g id="edge5" class="edge"><title>Insertion&#45;&gt;top</title>
<path fill="none" stroke="black" d="M339.795,-105.334C313.428,-117.09 276.192,-133.692 249.254,-145.703"/>
<polygon fill="black" stroke="black" points="247.543,-142.634 239.835,-149.903 250.393,-149.027 247.543,-142.634"/>
</g>
</g>
</svg>
